<svg width="251" height="250" viewBox="0 0 251 250" fill="none" xmlns="http://www.w3.org/2000/svg">
<path d="M125.5 250C108.505 250 92.2458 246.704 76.7217 240.112C61.1976 233.521 47.8387 224.65 36.645 213.501C25.4513 202.352 16.5454 189.046 9.92725 173.584C3.30908 158.122 0 141.927 0 125C0 108.073 3.30908 91.8783 9.92725 76.416C16.5454 60.9538 25.4513 47.6481 36.645 36.499C47.8387 25.3499 61.1976 16.4795 76.7217 9.8877C92.2458 3.2959 108.505 0 125.5 0C142.495 0 158.754 3.2959 174.278 9.8877C189.802 16.4795 203.161 25.3499 214.355 36.499C225.549 47.6481 234.455 60.9538 241.073 76.416C247.691 91.8783 251 108.073 251 125C251 141.927 247.691 158.122 241.073 173.584C234.455 189.046 225.549 202.352 214.355 213.501C203.161 224.65 189.802 233.521 174.278 240.112C158.754 246.704 142.495 250 125.5 250ZM71.8193 71.5332L60.0537 61.2793C58.2562 61.2793 56.1318 61.4827 53.6807 61.8896C51.2295 62.2965 49.0234 62.5 47.0625 62.5C46.8991 62.3372 45.4284 59.3262 42.6504 53.4668C24.6751 74.1374 15.6875 97.9818 15.6875 125C15.6875 125.488 15.7284 126.139 15.8101 126.953C15.8918 127.767 15.9326 128.337 15.9326 128.662C16.9131 129.639 19.3234 131.47 23.1636 134.155C27.0037 136.841 29.7409 138.997 31.375 140.625H47.0625C47.5527 140.299 48.0021 140.055 48.4106 139.893C48.8192 139.73 49.2686 139.567 49.7588 139.404C48.1247 137.614 45.7144 134.969 42.5278 131.47C39.3413 127.97 36.931 125.407 35.2969 123.779C35.9505 120.036 36.8493 114.38 37.9932 106.812C39.137 99.2432 39.9541 93.5872 40.4443 89.8438C54.4977 83.9844 64.9561 79.6712 71.8193 76.9043V71.5332ZM121.088 31.7383C118.8 30.7617 116.676 29.8665 114.715 29.0527C114.225 27.7507 113.898 26.7741 113.734 26.123C112.754 29.2155 111.201 33.8542 109.077 40.0391C109.731 40.2018 110.67 40.3646 111.896 40.5273C113.122 40.6901 114.061 40.8529 114.715 41.0156H121.088V31.7383ZM120.107 146.729C119.29 147.542 118.718 148.193 118.392 148.682C116.431 152.1 113.653 157.308 110.058 164.307C106.463 171.305 103.766 176.514 101.969 179.932C104.257 183.35 107.729 188.558 112.386 195.557C117.043 202.555 120.516 207.764 122.804 211.182C144.047 212.484 160.143 213.46 171.092 214.111C171.419 218.18 172.726 220.947 175.014 222.412C189.884 214.925 202.467 204.549 212.762 191.284C223.057 178.019 229.838 163.167 233.106 146.729C230.002 146.077 226.611 145.182 222.934 144.043C219.257 142.904 216.602 142.131 214.968 141.724C213.334 141.317 210.106 140.91 205.286 140.503C200.465 140.096 195.44 140.381 190.211 141.357C188.25 141.52 186.984 140.259 186.412 137.573C185.84 134.888 185.554 132.121 185.554 129.272C185.554 126.424 185.227 124.919 184.573 124.756C180.978 124.105 173.706 124.715 162.758 126.587C151.809 128.459 144.537 129.069 140.942 128.418C138.818 130.371 131.873 136.475 120.107 146.729ZM134.569 24.4141C134.079 27.6693 133.221 32.5521 131.996 39.0625C130.77 45.5729 129.83 50.5371 129.177 53.9551C129.994 53.7923 131.342 53.5889 133.221 53.3447C135.1 53.1006 136.449 52.9785 137.266 52.9785C136.775 52.653 136.203 52.3275 135.55 52.002C138.001 51.1882 139.799 50.5371 140.942 50.0488C138.164 38.6556 136.04 30.1107 134.569 24.4141ZM163.003 22.2168C162.676 24.0072 162.513 26.5299 162.513 29.7852C162.513 33.0404 161.696 37.3535 160.062 42.7246C160.225 43.0501 160.552 43.3757 161.042 43.7012C164.31 43.3757 169.785 42.806 177.465 41.9922C177.465 38.5742 179.181 35.1562 182.612 31.7383C176.403 27.9948 169.866 24.821 163.003 22.2168ZM193.643 39.3066C193.316 39.9577 192.744 40.8529 191.927 41.9922C195.032 42.4805 197.074 42.8874 198.055 43.2129C196.094 41.4225 194.623 40.1204 193.643 39.3066ZM200.261 45.166C199.771 46.1426 198.994 47.6074 197.932 49.5605C196.87 51.5137 196.094 52.9785 195.604 53.9551C190.865 54.1178 184.492 54.362 176.484 54.6875L175.504 46.3867C175.177 46.5495 174.605 46.7529 173.788 46.9971C172.971 47.2412 172.317 47.3633 171.827 47.3633V59.3262C168.396 59.6517 163.125 60.14 156.017 60.791C148.909 61.4421 143.639 61.9303 140.207 62.2559C139.063 63.8835 137.838 65.6738 136.53 67.627C140.942 77.0671 144.292 84.1471 146.58 88.8672C143.312 89.681 136.612 91.4714 126.48 94.2383V102.539C126.48 102.865 126.603 103.353 126.848 104.004C127.093 104.655 127.298 105.143 127.461 105.469C130.239 106.771 134.569 108.724 140.452 111.328C146.335 113.932 150.747 115.967 153.688 117.432L159.081 110.84C158.918 109.212 158.509 106.649 157.855 103.149C157.202 99.6501 156.712 97.0052 156.385 95.2148C156.875 94.8893 157.651 94.4417 158.713 93.8721C159.776 93.3024 160.552 92.8548 161.042 92.5293C165.454 91.2272 168.804 90.332 171.092 89.8438C173.216 93.2617 176.198 98.1445 180.039 104.492C183.879 110.84 186.289 114.827 187.27 116.455C188.74 115.153 190.783 113.159 193.397 110.474C196.012 107.788 197.973 105.794 199.28 104.492C190.456 98.3073 184.655 94.3197 181.877 92.5293C182.04 91.2272 182.367 89.3555 182.857 86.9141H191.927C201.078 94.7266 210.474 102.702 220.115 110.84C220.279 110.84 220.442 110.718 220.605 110.474C220.769 110.229 220.932 110.107 221.096 110.107C220.442 108.805 218.318 104.818 214.723 98.1445C214.723 97.9818 214.968 97.6562 215.458 97.168L216.438 96.1914H226.488C226.652 96.0286 228.041 95.2962 230.655 93.9941C225.099 75.1139 214.968 58.8379 200.261 45.166Z" fill="url(#paint0_linear_960_3245)" fill-opacity="0.3"/>
<defs>
<linearGradient id="paint0_linear_960_3245" x1="125.5" y1="0" x2="125.5" y2="250" gradientUnits="userSpaceOnUse">
<stop stop-color="#68FDF3"/>
<stop offset="0.453125" stop-color="#BCF4F1"/>
<stop offset="1" stop-color="#00D4FF"/>
</linearGradient>
</defs>
</svg>
