<svg width="24" height="21" viewBox="0 0 24 21" fill="none" xmlns="http://www.w3.org/2000/svg">
<g clip-path="url(#clip0_100_1089)">
<path d="M14.568 6.84687C13.8484 6.11771 13.0984 5.48333 12.318 4.94375C11.5377 4.40417 10.8067 3.99948 10.1249 3.72969C9.44305 3.4599 8.81805 3.33047 8.24987 3.34141C7.68168 3.35234 7.2385 3.52187 6.92032 3.85C6.84456 3.92292 6.78017 4.00495 6.72714 4.09609C6.67411 4.18724 6.63623 4.25833 6.6135 4.30937C6.59078 4.36042 6.56047 4.45156 6.52259 4.58281C6.48471 4.71406 6.4582 4.79792 6.44305 4.83437L2.21578 18.2219L2.47714 18.4844C2.18168 18.6812 1.91843 18.9109 1.68737 19.1734C1.45631 19.4359 1.25365 19.651 1.07941 19.8188C0.90517 19.9865 0.696837 20.1031 0.454412 20.1687C0.401382 20.1833 0.335094 20.2326 0.255549 20.3164C0.176003 20.4003 0.13623 20.475 0.13623 20.5406C0.13623 20.6719 0.204412 20.7812 0.340776 20.8687C0.47714 20.9562 0.628655 21 0.795321 21C1.00744 21 1.21199 20.918 1.40896 20.7539C1.60593 20.5898 1.80479 20.3802 2.00555 20.125C2.20631 19.8698 2.35214 19.7021 2.44305 19.6219C2.64002 19.4542 2.85972 19.2937 3.10214 19.1406L3.39759 19.4141L16.8294 15.0281C17.1249 14.9406 17.3521 14.8094 17.5112 14.6344C17.8294 14.3062 17.9942 13.8523 18.0055 13.2727C18.0169 12.693 17.89 12.0549 17.6249 11.3586C17.3597 10.6622 16.9639 9.91849 16.4374 9.12734C15.9109 8.3362 15.2877 7.57604 14.568 6.84687ZM13.3408 8.03906C14.4999 9.17656 15.3805 10.2648 15.9828 11.3039C16.5851 12.343 16.7309 13.0266 16.4203 13.3547C16.1097 13.6828 15.4317 13.5625 14.3862 12.9937C13.3408 12.425 12.2423 11.5755 11.0908 10.4453C9.92411 9.30781 9.03964 8.22135 8.43737 7.18594C7.83509 6.15052 7.68926 5.4651 7.99987 5.12969C8.31047 4.80156 8.9904 4.92188 10.0396 5.49062C11.0889 6.05937 12.1893 6.90885 13.3408 8.03906ZM10.8521 12.5672C11.4052 13.0411 11.9544 13.4568 12.4999 13.8141C12.5074 13.8286 12.6968 14.1714 13.068 14.8422L12.1135 15.1594C11.659 14.3354 11.2385 13.4714 10.8521 12.5672ZM6.97714 7.55781C7.14381 7.9151 7.37487 8.34896 7.67032 8.85938C7.91274 9.90938 8.29343 11.0469 8.81237 12.2719C9.33131 13.4969 9.89759 14.6453 10.5112 15.7172L9.56805 16.0234C8.85593 14.7547 8.23471 13.4258 7.70441 12.0367C7.17411 10.6477 6.84835 9.42083 6.72714 8.35625L6.97714 7.55781ZM5.65896 11.5609C6.18926 13.1943 6.93547 14.8714 7.89759 16.5922L6.96578 16.9094C6.21578 15.524 5.62487 14.2224 5.19305 13.0047L5.65896 11.5609ZM4.35214 15.5531C4.64759 16.224 4.96199 16.862 5.29532 17.4672L4.3635 17.7844C4.25744 17.5875 4.10593 17.2849 3.90896 16.8766L4.35214 15.5531ZM12.7044 0L13.2726 1.65156L11.8067 2.67969H13.6135L14.1703 4.33125L14.7271 2.67969H16.5226L15.068 1.65156L15.6362 0.0109375L14.1703 1.02812L12.7044 0ZM9.52259 0L9.21578 1.49844L10.7726 1.79375L11.0794 0.295312L9.52259 0ZM19.7612 4.50625L21.0112 3.24844L22.6362 4.01406L21.7953 2.48281L23.0567 1.24687L21.2726 1.54219L20.4317 0L20.1817 1.72812L18.3976 2.02344L20.0226 2.77813L19.7612 4.50625ZM19.3408 7.19688L20.8521 8.15938L20.3749 9.84375L21.784 8.75L23.284 9.7125L22.659 8.07187L24.068 7L22.2612 7.07656L21.6249 5.44688L21.159 7.12031L19.3408 7.19688ZM18.693 3.13906L15.3067 5.80781L15.7271 6.3L19.1135 3.63125L18.693 3.13906ZM19.8749 8.30156L17.2271 8.07187L17.159 8.70625L19.818 8.93594L19.8749 8.30156ZM20.1362 11.3641L19.6476 12.8297L21.159 13.3L21.659 11.8453L20.1362 11.3641Z" fill="#252525"/>
</g>
<defs>
<clipPath id="clip0_100_1089">
<rect width="24" height="21" fill="white"/>
</clipPath>
</defs>
</svg>
