<svg width="21" height="21" viewBox="0 0 21 21" fill="none" xmlns="http://www.w3.org/2000/svg">
<path d="M16.625 3.5H14.875V2.625C14.875 2.39294 14.7828 2.17038 14.6187 2.00628C14.4546 1.84219 14.2321 1.75 14 1.75C13.7679 1.75 13.5454 1.84219 13.3813 2.00628C13.2172 2.17038 13.125 2.39294 13.125 2.625V3.5H7.875V2.625C7.875 2.39294 7.78281 2.17038 7.61872 2.00628C7.45462 1.84219 7.23206 1.75 7 1.75C6.76794 1.75 6.54538 1.84219 6.38128 2.00628C6.21719 2.17038 6.125 2.39294 6.125 2.625V3.5H4.375C3.67881 3.5 3.01113 3.77656 2.51884 4.26884C2.02656 4.76113 1.75 5.42881 1.75 6.125V16.625C1.75 17.3212 2.02656 17.9889 2.51884 18.4812C3.01113 18.9734 3.67881 19.25 4.375 19.25H16.625C17.3212 19.25 17.9889 18.9734 18.4812 18.4812C18.9734 17.9889 19.25 17.3212 19.25 16.625V6.125C19.25 5.42881 18.9734 4.76113 18.4812 4.26884C17.9889 3.77656 17.3212 3.5 16.625 3.5ZM17.5 16.625C17.5 16.8571 17.4078 17.0796 17.2437 17.2437C17.0796 17.4078 16.8571 17.5 16.625 17.5H4.375C4.14294 17.5 3.92038 17.4078 3.75628 17.2437C3.59219 17.0796 3.5 16.8571 3.5 16.625V10.5H17.5V16.625ZM17.5 8.75H3.5V6.125C3.5 5.89294 3.59219 5.67038 3.75628 5.50628C3.92038 5.34219 4.14294 5.25 4.375 5.25H6.125V6.125C6.125 6.35706 6.21719 6.57962 6.38128 6.74372C6.54538 6.90781 6.76794 7 7 7C7.23206 7 7.45462 6.90781 7.61872 6.74372C7.78281 6.57962 7.875 6.35706 7.875 6.125V5.25H13.125V6.125C13.125 6.35706 13.2172 6.57962 13.3813 6.74372C13.5454 6.90781 13.7679 7 14 7C14.2321 7 14.4546 6.90781 14.6187 6.74372C14.7828 6.57962 14.875 6.35706 14.875 6.125V5.25H16.625C16.8571 5.25 17.0796 5.34219 17.2437 5.50628C17.4078 5.67038 17.5 5.89294 17.5 6.125V8.75Z" fill="#7B7B7B"/>
</svg>
