<svg width="14" height="15" viewBox="0 0 14 15" fill="none" xmlns="http://www.w3.org/2000/svg">
<g clip-path="url(#clip0_578_1443)">
<path d="M12.8333 1.40607H10.9375V0.468574C10.9376 0.344254 10.8916 0.224993 10.8096 0.137027C10.7276 0.0490602 10.6163 -0.00040529 10.5003 -0.00048817C10.3843 -0.00057105 10.2729 0.0487355 10.1908 0.136585C10.1087 0.224434 10.0626 0.343629 10.0625 0.467949V1.40607H7.4375V0.468574C7.43754 0.407017 7.42626 0.346055 7.40431 0.289168C7.38236 0.232281 7.35016 0.180583 7.30957 0.137027C7.26897 0.09347 7.22076 0.0589077 7.16769 0.0353129C7.11463 0.0117181 7.05774 -0.000447139 7.00029 -0.000488177C6.88426 -0.000571057 6.77295 0.0487355 6.69085 0.136585C6.60874 0.224434 6.56258 0.343629 6.5625 0.467949V1.40607H3.9375V0.468574C3.93754 0.407017 3.92626 0.346055 3.90431 0.289168C3.88236 0.232281 3.85016 0.180583 3.80957 0.137027C3.76897 0.09347 3.72076 0.0589077 3.66769 0.0353129C3.61463 0.0117181 3.55774 -0.000447139 3.50029 -0.000488177C3.38426 -0.000571057 3.27295 0.0487355 3.19085 0.136585C3.10875 0.224434 3.06258 0.343629 3.0625 0.467949V1.40607H1.16667C0.857348 1.40607 0.560691 1.53768 0.341915 1.77197C0.123139 2.00626 0.000154659 2.32404 0 2.65545V13.7492C0 14.0807 0.122916 14.3987 0.341709 14.6331C0.560501 14.8675 0.857247 14.9992 1.16667 14.9992H12.8333C13.1428 14.9992 13.4395 14.8675 13.6583 14.6331C13.8771 14.3987 14 14.0807 14 13.7492V2.65545C13.9998 2.32404 13.8769 2.00626 13.6581 1.77197C13.4393 1.53768 13.1427 1.40607 12.8333 1.40607ZM13.125 13.7498C13.125 13.8326 13.0944 13.912 13.0398 13.9706C12.9852 14.0292 12.9112 14.0622 12.8339 14.0623H1.16667C1.08931 14.0623 1.01513 14.0294 0.960427 13.9708C0.905729 13.9122 0.875 13.8327 0.875 13.7498V2.65607C0.875154 2.5733 0.905952 2.49398 0.960633 2.43551C1.01531 2.37704 1.08941 2.3442 1.16667 2.3442H3.0625V3.2817C3.06242 3.40602 3.10844 3.52528 3.19043 3.61325C3.27243 3.70121 3.38368 3.75068 3.49971 3.75076C3.61574 3.75084 3.72705 3.70154 3.80915 3.61369C3.89125 3.52584 3.93742 3.40664 3.9375 3.28232V2.3442H6.5625V3.2817C6.56242 3.40602 6.60844 3.52528 6.69043 3.61325C6.77243 3.70121 6.88368 3.75068 6.99971 3.75076C7.11574 3.75084 7.22705 3.70154 7.30915 3.61369C7.39125 3.52584 7.43742 3.40664 7.4375 3.28232V2.3442H10.0625V3.2817C10.0624 3.40602 10.1084 3.52528 10.1904 3.61325C10.2724 3.70121 10.3837 3.75068 10.4997 3.75076C10.6157 3.75084 10.7271 3.70154 10.8092 3.61369C10.8913 3.52584 10.9374 3.40664 10.9375 3.28232V2.3442H12.8333C12.9105 2.34436 12.9844 2.37728 13.039 2.43573C13.0935 2.49418 13.1243 2.57341 13.1244 2.65607L13.125 13.7498Z" fill="#8B8B8B"/>
<path d="M3.0625 5.625H4.8125V7.03125H3.0625V5.625Z" fill="#8B8B8B"/>
<path d="M3.0625 7.96875H4.8125V9.375H3.0625V7.96875Z" fill="#8B8B8B"/>
<path d="M3.0625 10.3125H4.8125V11.7188H3.0625V10.3125Z" fill="#8B8B8B"/>
<path d="M6.125 10.3125H7.875V11.7188H6.125V10.3125Z" fill="#8B8B8B"/>
<path d="M6.125 7.96875H7.875V9.375H6.125V7.96875Z" fill="#8B8B8B"/>
<path d="M6.125 5.625H7.875V7.03125H6.125V5.625Z" fill="#8B8B8B"/>
<path d="M9.1875 10.3125H10.9375V11.7188H9.1875V10.3125Z" fill="#8B8B8B"/>
<path d="M9.1875 7.96875H10.9375V9.375H9.1875V7.96875Z" fill="#8B8B8B"/>
<path d="M9.1875 5.625H10.9375V7.03125H9.1875V5.625Z" fill="#8B8B8B"/>
</g>
<defs>
<clipPath id="clip0_578_1443">
<rect width="14" height="15" fill="white"/>
</clipPath>
</defs>
</svg>
