<svg width="90" height="80" viewBox="0 0 90 80" fill="none" xmlns="http://www.w3.org/2000/svg">
<path d="M33.7607 25.9375C33.7607 28.1753 32.8718 30.3214 31.2895 31.9037C29.7071 33.4861 27.561 34.375 25.3232 34.375C23.0855 34.375 20.9394 33.4861 19.357 31.9037C17.7747 30.3214 16.8857 28.1753 16.8857 25.9375C16.8857 23.6997 17.7747 21.5536 19.357 19.9713C20.9394 18.3889 23.0855 17.5 25.3232 17.5C27.561 17.5 29.7071 18.3889 31.2895 19.9713C32.8718 21.5536 33.7607 23.6997 33.7607 25.9375Z" fill="#8B8B8B"/>
<path d="M11.2607 0.625C8.27706 0.625 5.41558 1.81026 3.30579 3.92005C1.19601 6.02983 0.0107422 8.89131 0.0107422 11.875V68.125C0.0107422 71.1087 1.19601 73.9702 3.30579 76.0799C5.41558 78.1897 8.27706 79.375 11.2607 79.375H78.7607C81.7444 79.375 84.6059 78.1897 86.7157 76.0799C88.8255 73.9702 90.0107 71.1087 90.0107 68.125V11.875C90.0107 8.89131 88.8255 6.02983 86.7157 3.92005C84.6059 1.81026 81.7444 0.625 78.7607 0.625H11.2607ZM78.7607 6.25C80.2526 6.25 81.6833 6.84263 82.7382 7.89752C83.7931 8.95242 84.3857 10.3832 84.3857 11.875V48.4375L63.1401 37.4856C62.6126 37.2214 62.0154 37.1297 61.4329 37.2236C60.8505 37.3175 60.3123 37.5922 59.8945 38.0088L39.0257 58.8775L24.0632 48.91C23.523 48.5503 22.875 48.3886 22.2291 48.4521C21.5833 48.5157 20.9792 48.8007 20.5195 49.2588L5.63574 62.5V11.875C5.63574 10.3832 6.22838 8.95242 7.28327 7.89752C8.33816 6.84263 9.7689 6.25 11.2607 6.25H78.7607Z" fill="#8B8B8B"/>
</svg>
