<svg width="101" height="20" viewBox="0 0 101 20" fill="none" xmlns="http://www.w3.org/2000/svg">
<path d="M10.0001 6.87579C8.2798 6.87579 6.8759 8.2797 6.8759 10C6.8759 11.7203 8.2798 13.1242 10.0001 13.1242C11.7204 13.1242 13.1243 11.7203 13.1243 10C13.1243 8.2797 11.7204 6.87579 10.0001 6.87579ZM19.3704 10C19.3704 8.70626 19.3822 7.42423 19.3095 6.13283C19.2368 4.63283 18.8947 3.30158 17.7978 2.2047C16.6986 1.10548 15.3696 0.765639 13.8696 0.692982C12.5759 0.620326 11.2939 0.632045 10.0025 0.632045C8.70871 0.632045 7.42668 0.620326 6.13527 0.692982C4.63527 0.765639 3.30402 1.10783 2.20714 2.2047C1.10792 3.30392 0.76808 4.63283 0.695424 6.13283C0.622767 7.42658 0.634486 8.70861 0.634486 10C0.634486 11.2914 0.622767 12.5758 0.695424 13.8672C0.76808 15.3672 1.11027 16.6985 2.20714 17.7953C3.30636 18.8945 4.63527 19.2344 6.13527 19.307C7.42902 19.3797 8.71105 19.368 10.0025 19.368C11.2962 19.368 12.5782 19.3797 13.8696 19.307C15.3696 19.2344 16.7009 18.8922 17.7978 17.7953C18.897 16.6961 19.2368 15.3672 19.3095 13.8672C19.3845 12.5758 19.3704 11.2938 19.3704 10ZM10.0001 14.807C7.33996 14.807 5.19308 12.6602 5.19308 10C5.19308 7.33986 7.33996 5.19298 10.0001 5.19298C12.6603 5.19298 14.8071 7.33986 14.8071 10C14.8071 12.6602 12.6603 14.807 10.0001 14.807ZM15.004 6.11876C14.3829 6.11876 13.8814 5.6172 13.8814 4.99611C13.8814 4.37501 14.3829 3.87345 15.004 3.87345C15.6251 3.87345 16.1267 4.37501 16.1267 4.99611C16.1269 5.14359 16.098 5.28966 16.0416 5.42595C15.9852 5.56224 15.9026 5.68607 15.7983 5.79036C15.694 5.89464 15.5702 5.97733 15.4339 6.03368C15.2976 6.09004 15.1515 6.11895 15.004 6.11876Z" fill="#AAAAAA"/>
<path d="M56.0084 11.1244L56.5085 7.867H53.3827V5.75312C53.3827 4.86212 53.8192 3.99306 55.2192 3.99306H56.6401V1.21994C56.6401 1.21994 55.3509 1 54.1179 1C51.5439 1 49.8614 2.56038 49.8614 5.38469V7.86756H47V11.125H49.8614V19H53.3827V11.125L56.0084 11.1244Z" fill="#AAAAAA"/>
<path d="M100.732 4.70281C100.106 4.98031 99.4331 5.16781 98.7259 5.25256C99.4556 4.8159 100.002 4.12866 100.262 3.31906C99.5763 3.7263 98.8259 4.01295 98.0434 4.16656C97.5172 3.60471 96.8202 3.2323 96.0606 3.10716C95.3011 2.98202 94.5215 3.11115 93.8428 3.4745C93.1642 3.83784 92.6245 4.41508 92.3075 5.11659C91.9905 5.81809 91.914 6.60462 92.0899 7.35406C90.7007 7.2843 89.3416 6.92322 88.101 6.29424C86.8603 5.66525 85.7658 4.78243 84.8884 3.70306C84.5884 4.22056 84.4159 4.82056 84.4159 5.45956C84.4156 6.0348 84.5572 6.60124 84.8283 7.10861C85.0994 7.61597 85.4915 8.04859 85.9699 8.36806C85.4151 8.3504 84.8725 8.20049 84.3874 7.93081V7.97581C84.3873 8.78261 84.6664 9.56459 85.1773 10.1891C85.6881 10.8135 86.3993 11.242 87.1901 11.4018C86.6755 11.5411 86.1359 11.5616 85.6121 11.4618C85.8353 12.156 86.2699 12.7631 86.8552 13.198C87.4404 13.6329 88.1471 13.8739 88.8761 13.8873C87.6385 14.8589 86.1101 15.3859 84.5366 15.3836C84.2579 15.3836 83.9794 15.3674 83.7026 15.3348C85.2997 16.3617 87.1589 16.9067 89.0576 16.9046C95.4851 16.9046 98.9989 11.5811 98.9989 6.96406C98.9989 6.81406 98.9951 6.66256 98.9884 6.51256C99.6719 6.01829 100.262 5.40623 100.731 4.70506L100.732 4.70281Z" fill="#AAAAAA"/>
</svg>
