<svg width="106" height="30" viewBox="0 0 106 30" fill="none" xmlns="http://www.w3.org/2000/svg">
<path d="M3.94945e-05 21.5489V1.5313C-0.00140968 1.32565 0.0370351 1.12168 0.113262 0.930675C0.189022 0.747264 0.299335 0.580126 0.438193 0.438359C0.581656 0.296436 0.752016 0.184566 0.939267 0.109328C1.12652 0.0340887 1.32689 -0.00301264 1.52867 0.000191132H5.95951C6.63925 -0.00153598 7.31599 0.0904035 7.97063 0.273423C8.61063 0.452361 9.22462 0.713852 9.79712 1.05129C10.3633 1.38783 10.8858 1.79296 11.3528 2.25747C11.8213 2.71825 12.2268 3.23886 12.559 3.8058C12.8924 4.38034 13.1536 4.9938 13.3369 5.63228C13.5247 6.28608 13.6192 6.96314 13.6175 7.64339C13.6097 9.66986 12.8016 11.6112 11.3691 13.0446C9.93663 14.478 7.99583 15.2874 5.96937 15.2964H3.05731V21.5562C3.05731 21.9617 2.89627 22.3505 2.60959 22.6372C2.32292 22.9238 1.93409 23.0849 1.52867 23.0849C1.12325 23.0849 0.734439 22.9238 0.447763 22.6372C0.161087 22.3505 3.94945e-05 21.9617 3.94945e-05 21.5562V21.5489ZM3.05731 3.05993V12.2318H5.96937C6.57725 12.2353 7.17918 12.112 7.73678 11.8699C8.27983 11.6357 8.77412 11.3017 9.19403 10.8853C9.61143 10.4662 9.94555 9.97168 10.1787 9.42803C10.4242 8.86444 10.5492 8.2557 10.5454 7.64094C10.5499 7.02054 10.425 6.40601 10.1787 5.8366C9.70405 4.7383 8.8215 3.86721 7.71708 3.40702C7.1599 3.173 6.56137 3.0533 5.95705 3.05502L3.05731 3.05993Z" fill="#333333"/>
<path d="M28.801 21.5761V21.2881C28.0955 21.8564 27.3013 22.3046 26.4502 22.6149C25.5817 22.9266 24.6652 23.0832 23.7425 23.0777C22.1451 23.0777 20.5836 22.604 19.2554 21.7166C17.9273 20.8291 16.8921 19.5677 16.2808 18.092C15.6695 16.6162 15.5096 14.9923 15.8212 13.4256C16.1328 11.8589 16.902 10.4199 18.0316 9.29035C19.1611 8.16084 20.6002 7.39163 22.1668 7.08C23.7335 6.76836 25.3574 6.9283 26.8332 7.53959C28.3089 8.15087 29.5703 9.18605 30.4578 10.5142C31.3452 11.8424 31.8189 13.4039 31.8189 15.0012V21.5761C31.8183 21.9737 31.6602 22.3549 31.3792 22.6363C31.0983 22.9177 30.7174 23.0764 30.3198 23.0777C30.12 23.0808 29.9217 23.0434 29.7368 22.9676C29.5519 22.8919 29.3843 22.7794 29.2441 22.637C29.1016 22.4999 28.9887 22.335 28.9125 22.1525C28.8363 21.9701 28.7983 21.7739 28.801 21.5761ZM23.7375 9.93778C23.0537 9.93275 22.3763 10.0702 21.7486 10.3415C20.5384 10.8617 19.5786 11.833 19.0728 13.0492C18.8113 13.6702 18.6765 14.3373 18.6765 15.0111C18.6765 15.6849 18.8113 16.352 19.0728 16.973C19.5773 18.1901 20.5375 19.1619 21.7486 19.6807C22.3757 19.9471 23.05 20.0844 23.7314 20.0844C24.4127 20.0844 25.0871 19.9471 25.7142 19.6807C26.3151 19.4218 26.8608 19.0499 27.3216 18.5853C27.7799 18.1224 28.1465 17.577 28.4022 16.9779C28.6653 16.3599 28.801 15.6951 28.801 15.0234C28.801 14.3517 28.6653 13.6869 28.4022 13.0689C27.8864 11.8552 26.9241 10.8859 25.7142 10.3612C25.0919 10.0841 24.4187 9.93987 23.7375 9.93778Z" fill="#333333"/>
<path d="M39.4295 21.5761L34.2356 9.10328C34.1415 8.88912 34.0929 8.65778 34.0928 8.42388C34.0912 8.22595 34.1306 8.02981 34.2085 7.84787C34.2815 7.66474 34.3893 7.49753 34.5261 7.35555C34.6599 7.21519 34.8218 7.10449 35.0011 7.03062C35.188 6.9519 35.3891 6.91253 35.5919 6.91493C35.8889 6.91352 36.1799 6.99909 36.4289 7.16109C36.6965 7.34117 36.9027 7.59887 37.0196 7.89956L41.0714 17.576L45.1256 7.87003C45.2284 7.59933 45.3977 7.3589 45.6179 7.17093C45.883 6.9787 46.2068 6.88471 46.5336 6.90508C46.7364 6.90267 46.9375 6.94206 47.1244 7.02078C47.3042 7.09517 47.4668 7.20578 47.602 7.34571C47.7377 7.48948 47.8469 7.65616 47.9244 7.83802C48.0058 8.01913 48.0478 8.21547 48.0475 8.41402C48.0427 8.64897 47.989 8.88034 47.89 9.09342L39.5969 28.9805C39.4773 29.2761 39.2769 29.5321 39.0184 29.719C38.7731 29.9017 38.4751 30.0001 38.1692 29.9996C37.9719 30.0049 37.7756 29.9699 37.5923 29.8967C37.409 29.8234 37.2427 29.7135 37.1033 29.5737C36.9634 29.4316 36.8538 29.2625 36.781 29.0768C36.7083 28.8911 36.6739 28.6925 36.6799 28.4931C36.6791 28.2639 36.7278 28.0372 36.8227 27.8285L39.4295 21.5761Z" fill="#333333"/>
<path d="M73.3502 11.5403C73.3575 14.2182 72.4356 16.8158 70.7417 18.8899C69.0478 20.9641 66.6869 22.3864 64.0615 22.9143C61.4361 23.4422 58.7089 23.043 56.3449 21.7847C53.981 20.5265 52.1268 18.4872 51.0984 16.0145C50.0701 13.5419 49.9314 10.7891 50.7059 8.22565C51.4804 5.66217 53.1203 3.44676 55.3458 1.95725C57.5712 0.467742 60.2445 -0.203622 62.9096 0.0576586C65.5748 0.318939 68.0668 1.49668 69.9606 3.39003C71.0449 4.45173 71.9098 5.71637 72.5059 7.11193C73.0795 8.51708 73.3666 10.0227 73.3502 11.5403ZM61.8103 3.06017C60.691 3.04641 59.5802 3.25734 58.5438 3.68049C57.5194 4.12034 56.5911 4.75676 55.8115 5.55375C55.0053 6.32492 54.3683 7.2554 53.9411 8.28604C53.514 9.31667 53.3059 10.4249 53.3302 11.5403C53.3307 13.2168 53.8282 14.8556 54.76 16.2493C55.6917 17.6431 57.0158 18.7293 58.5647 19.3707C60.1137 20.012 61.8181 20.1797 63.4624 19.8525C65.1067 19.5253 66.617 18.7179 67.8025 17.5325C68.988 16.347 69.7953 14.8366 70.1225 13.1924C70.4497 11.5481 70.282 9.84371 69.6407 8.29472C68.9993 6.74573 67.9131 5.42167 66.5194 4.48994C65.1256 3.55822 63.4869 3.06066 61.8103 3.06017Z" fill="#333333"/>
<path d="M78.6131 8.42361V8.71161C79.3189 8.14371 80.1131 7.69548 80.964 7.38481C81.8326 7.07399 82.7491 6.91818 83.6717 6.9245C84.1276 6.92689 84.5829 6.95566 85.0354 7.01067C85.493 7.06207 85.9432 7.16613 86.377 7.32081C86.7549 7.45204 87.1011 7.66083 87.3936 7.93376C87.5276 8.0645 87.6327 8.22183 87.7022 8.39565C87.7718 8.56947 87.8041 8.75592 87.7973 8.943C87.7986 9.14642 87.7566 9.34781 87.6742 9.53378C87.5965 9.71613 87.4864 9.88292 87.3493 10.0261C87.2147 10.165 87.053 10.2747 86.8742 10.3486C86.6873 10.4273 86.4862 10.4667 86.2834 10.4643C86.0632 10.4556 85.8471 10.402 85.6483 10.3067C85.0209 10.062 84.3525 9.9392 83.6791 9.94486C83.0025 9.94134 82.3323 10.0762 81.7098 10.3412C80.4961 10.8524 79.5305 11.818 79.0193 13.0317C78.7547 13.6543 78.6198 14.3244 78.623 15.0009V21.5758C78.6224 21.9734 78.4643 22.3546 78.1834 22.636C77.9024 22.9174 77.5215 23.0761 77.1239 23.0774C76.9241 23.0805 76.7258 23.0431 76.5409 22.9673C76.356 22.8916 76.1883 22.7791 76.0482 22.6367C75.9062 22.4993 75.7939 22.3343 75.7181 22.1519C75.6423 21.9694 75.6047 21.7734 75.6076 21.5758V8.42361C75.6233 8.03428 75.789 7.66612 76.0701 7.39622C76.3511 7.12632 76.7256 6.97558 77.1153 6.97558C77.5049 6.97558 77.8795 7.12632 78.1605 7.39622C78.4415 7.66612 78.6073 8.03428 78.623 8.42361H78.6131Z" fill="#333333"/>
<path d="M92.5157 8.7118C93.9323 7.52584 95.7295 6.89123 97.5767 6.92469C99.1724 6.93506 100.73 7.4105 102.06 8.29279C103.389 9.17508 104.433 10.4259 105.062 11.8922C105.462 12.8795 105.663 13.936 105.653 15.0011C105.674 16.0647 105.474 17.121 105.067 18.1038C104.66 19.0865 104.054 19.9745 103.288 20.712C102.158 21.8406 100.719 22.6091 99.1528 22.9202C97.5866 23.2314 95.9633 23.0712 94.488 22.46C93.0127 21.8489 91.7517 20.8141 90.8644 19.4865C89.9771 18.1588 89.5032 16.598 89.5027 15.0011V1.51169C89.4962 1.31285 89.5306 1.11479 89.6038 0.929797C89.677 0.744803 89.7874 0.576824 89.9282 0.436265C90.069 0.295706 90.2371 0.185567 90.4223 0.112687C90.6074 0.0398067 90.8055 0.00572918 91.0043 0.0125801C91.2024 0.00752348 91.3996 0.0424116 91.584 0.115151C91.7684 0.18789 91.9362 0.297 92.0775 0.435979C92.2218 0.574724 92.3356 0.742066 92.4114 0.927303C92.4873 1.11254 92.5237 1.31159 92.5182 1.51169L92.5157 8.7118ZM97.5767 20.0621C98.2541 20.0664 98.9249 19.9289 99.546 19.6584C100.147 19.3995 100.693 19.0276 101.153 18.563C101.611 18.0995 101.979 17.5543 102.236 16.9556C102.498 16.3372 102.633 15.6726 102.633 15.0011C102.633 14.3297 102.498 13.665 102.236 13.0466C101.979 12.4476 101.612 11.9024 101.153 11.4392C100.693 10.9739 100.147 10.6012 99.546 10.3414C98.9189 10.0749 98.2445 9.93763 97.5632 9.93763C96.8818 9.93763 96.2075 10.0749 95.5804 10.3414C94.3716 10.8635 93.4124 11.8342 92.9046 13.0491C92.643 13.6701 92.5083 14.3371 92.5083 15.011C92.5083 15.6848 92.643 16.3519 92.9046 16.9729C93.411 18.1887 94.3707 19.1598 95.5804 19.6806C96.2117 19.9465 96.8919 20.0765 97.5767 20.0621Z" fill="#333333"/>
</svg>
