<svg width="18" height="18" viewBox="0 0 18 18" fill="none" xmlns="http://www.w3.org/2000/svg">
<g clip-path="url(#clip0_100_1855)">
<path d="M15.9132 2.04287H13.6671V1.00622C13.6672 0.868752 13.6127 0.736877 13.5156 0.639607C13.4184 0.542338 13.2866 0.487641 13.1492 0.487549C13.0117 0.487457 12.8798 0.541979 12.7825 0.639119C12.6853 0.736259 12.6306 0.868061 12.6305 1.00553V2.04287H9.52053V1.00622C9.52057 0.938153 9.50721 0.870743 9.4812 0.807839C9.4552 0.744936 9.41706 0.687771 9.36896 0.639607C9.32086 0.591444 9.26374 0.553227 9.20088 0.527136C9.13801 0.501046 9.07061 0.487594 9.00255 0.487549C8.86508 0.487457 8.7332 0.541979 8.63593 0.639119C8.53866 0.736259 8.48397 0.868061 8.48387 1.00553V2.04287H5.37392V1.00622C5.37396 0.938153 5.3606 0.870743 5.3346 0.807839C5.30859 0.744936 5.27045 0.687771 5.22235 0.639607C5.17425 0.591444 5.11714 0.553227 5.05427 0.527136C4.9914 0.501046 4.92401 0.487594 4.85594 0.487549C4.71847 0.487457 4.5866 0.541979 4.48933 0.639119C4.39206 0.736259 4.33736 0.868061 4.33727 1.00553V2.04287H2.09119C1.72472 2.04287 1.37326 2.1884 1.11407 2.44747C0.854873 2.70653 0.709168 3.05792 0.708984 3.42438V15.6914C0.708984 16.058 0.854609 16.4096 1.11382 16.6688C1.37304 16.928 1.7246 17.0736 2.09119 17.0736H15.9132C16.2798 17.0736 16.6314 16.928 16.8906 16.6688C17.1498 16.4096 17.2954 16.058 17.2954 15.6914V3.42438C17.2952 3.05792 17.1495 2.70653 16.8903 2.44747C16.6311 2.1884 16.2797 2.04287 15.9132 2.04287ZM16.2588 15.6921C16.2588 15.7837 16.2225 15.8714 16.1578 15.9362C16.0931 16.001 16.0054 16.0375 15.9139 16.0377H2.09119C1.99954 16.0377 1.91165 16.0013 1.84685 15.9365C1.78204 15.8717 1.74564 15.7838 1.74564 15.6921V3.42508C1.74582 3.33355 1.78231 3.24583 1.84709 3.18118C1.91187 3.11653 1.99966 3.08022 2.09119 3.08022H4.33727V4.11687C4.33717 4.25434 4.3917 4.38621 4.48884 4.48348C4.58598 4.58075 4.71778 4.63545 4.85525 4.63554C4.99272 4.63563 5.12459 4.58111 5.22186 4.48397C5.31913 4.38683 5.37383 4.25503 5.37392 4.11756V3.08022H8.48387V4.11687C8.48378 4.25434 8.5383 4.38621 8.63544 4.48348C8.73258 4.58075 8.86439 4.63545 9.00186 4.63554C9.13932 4.63563 9.2712 4.58111 9.36847 4.48397C9.46574 4.38683 9.52044 4.25503 9.52053 4.11756V3.08022H12.6305V4.11687C12.6304 4.25434 12.6849 4.38621 12.7821 4.48348C12.8792 4.58075 13.011 4.63545 13.1485 4.63554C13.2859 4.63563 13.4178 4.58111 13.5151 4.48397C13.6123 4.38683 13.667 4.25503 13.6671 4.11756V3.08022H15.9132C16.0046 3.0804 16.0922 3.11679 16.1569 3.18142C16.2215 3.24606 16.2579 3.33367 16.2581 3.42508L16.2588 15.6921Z" fill="#68FDF3"/>
<path d="M4.3374 6.70801H6.41071V8.26299H4.3374V6.70801Z" fill="#68FDF3"/>
<path d="M4.3374 9.29956H6.41071V10.8545H4.3374V9.29956Z" fill="#68FDF3"/>
<path d="M4.3374 11.8911H6.41071V13.4461H4.3374V11.8911Z" fill="#68FDF3"/>
<path d="M7.96533 11.8911H10.0386V13.4461H7.96533V11.8911Z" fill="#68FDF3"/>
<path d="M7.96533 9.29956H10.0386V10.8545H7.96533V9.29956Z" fill="#68FDF3"/>
<path d="M7.96533 6.70801H10.0386V8.26299H7.96533V6.70801Z" fill="#68FDF3"/>
<path d="M11.5938 11.8911H13.6671V13.4461H11.5938V11.8911Z" fill="#68FDF3"/>
<path d="M11.5938 9.29956H13.6671V10.8545H11.5938V9.29956Z" fill="#68FDF3"/>
<path d="M11.5938 6.70801H13.6671V8.26299H11.5938V6.70801Z" fill="#68FDF3"/>
</g>
<defs>
<clipPath id="clip0_100_1855">
<rect width="16.5864" height="16.5864" fill="white" transform="translate(0.708984 0.488037)"/>
</clipPath>
</defs>
</svg>
