<svg width="20" height="21" viewBox="0 0 20 21" fill="none" xmlns="http://www.w3.org/2000/svg">
<path d="M9.95191 2.31726C5.37903 2.31726 1.65869 6.0376 1.65869 10.6105C1.65869 15.1834 5.37903 18.9037 9.95191 18.9037C14.5248 18.9037 18.2451 15.1834 18.2451 10.6105C18.2451 6.0376 14.5248 2.31726 9.95191 2.31726ZM9.95191 17.2451C6.29377 17.2451 3.31733 14.2686 3.31733 10.6105C3.31733 6.95234 6.29377 3.9759 9.95191 3.9759C13.61 3.9759 16.5865 6.95234 16.5865 10.6105C16.5865 14.2686 13.61 17.2451 9.95191 17.2451Z" fill="#68FDF3"/>
<path d="M10.7812 6.46387H9.12256V10.9538L11.8535 13.6848L13.0262 12.5121L10.7812 10.2671V6.46387Z" fill="#68FDF3"/>
</svg>
