<svg width="455" height="377" viewBox="0 0 455 377" fill="none" xmlns="http://www.w3.org/2000/svg">
<g clip-path="url(#clip0_953_2287)">
<path opacity="0.3" d="M108.588 367.291C115.178 367.673 121.244 371.324 128.188 372.262C174.928 378.578 222.306 378.578 269.047 372.262C291.009 369.3 312.394 363.662 334.513 362.335C357.21 360.963 380.724 363.302 402.588 355.729C428.719 346.672 447.637 322.958 448.694 297.923C449.706 274.051 436.12 251.903 428.824 228.946C420.193 201.706 420.427 172.431 429.492 145.333C438.602 118.117 456.575 92.1901 454.888 63.8268C452.526 24.1347 404.2 -7.85736 361.079 1.70203C338.495 6.70291 319.547 20.7159 297.217 26.5565C260.949 36.0559 221.981 22.8077 184.431 26.5565C152.534 29.8104 123.156 45.5178 101.817 66.9758C80.4773 88.4339 66.7032 115.245 58.3803 142.941C51.0397 167.398 47.5156 193.265 33.7191 215.375C23.6116 231.562 8.11305 245.583 3.58419 263.697C-1.72447 284.923 -17.478 360.048 108.588 367.291Z" fill="#68FDF3"/>
<path d="M58.5227 177.835V216.223C58.5217 218.332 58.9365 220.421 59.7433 222.37C60.5501 224.319 61.7331 226.089 63.2247 227.581C64.7162 229.072 66.4872 230.255 68.4362 231.062C70.3853 231.869 72.4742 232.283 74.5837 232.282H77.4704V249.159L86.2357 232.282H152.886C157.146 232.282 161.231 230.59 164.243 227.579C167.255 224.567 168.947 220.482 168.947 216.223V177.835C168.948 175.726 168.534 173.637 167.727 171.688C166.92 169.739 165.737 167.968 164.245 166.477C162.754 164.986 160.983 163.803 159.034 162.996C157.085 162.189 154.996 161.774 152.886 161.775H74.5837C72.4742 161.774 70.3853 162.189 68.4362 162.996C66.4872 163.803 64.7162 164.986 63.2247 166.477C61.7331 167.968 60.5501 169.739 59.7433 171.688C58.9365 173.637 58.5217 175.726 58.5227 177.835Z" fill="#68FDF3"/>
<path d="M58.5227 177.835V216.223C58.5217 218.332 58.9365 220.421 59.7433 222.37C60.5501 224.319 61.7331 226.089 63.2247 227.581C64.7162 229.072 66.4872 230.255 68.4362 231.062C70.3853 231.869 72.4742 232.283 74.5837 232.282H77.4704V249.159L86.2357 232.282H152.886C157.146 232.282 161.231 230.59 164.243 227.579C167.255 224.567 168.947 220.482 168.947 216.223V177.835C168.948 175.726 168.534 173.637 167.727 171.688C166.92 169.739 165.737 167.968 164.245 166.477C162.754 164.986 160.983 163.803 159.034 162.996C157.085 162.189 154.996 161.774 152.886 161.775H74.5837C72.4742 161.774 70.3853 162.189 68.4362 162.996C66.4872 163.803 64.7162 164.986 63.2247 166.477C61.7331 167.968 60.5501 169.739 59.7433 171.688C58.9365 173.637 58.5217 175.726 58.5227 177.835Z" fill="url(#paint0_linear_953_2287)"/>
<path d="M77.7616 187.316H160.038V182.72H77.7616V187.316Z" fill="white"/>
<path d="M77.7616 199.455H160.038V194.859H77.7616V199.455Z" fill="white"/>
<path d="M77.7616 211.586H160.038V206.99H77.7616V211.586Z" fill="white"/>
<path d="M216.635 365.648C285.543 365.648 341.404 356.411 341.404 345.015C341.404 333.62 285.543 324.382 216.635 324.382C147.727 324.382 91.8667 333.62 91.8667 345.015C91.8667 356.411 147.727 365.648 216.635 365.648Z" fill="#DADADA" fill-opacity="0.46"/>
<path d="M276.538 45.0605H164.066C151.183 45.0605 140.74 55.5035 140.74 68.3855V329.098C140.74 341.98 151.183 352.423 164.066 352.423H276.538C289.421 352.423 299.864 341.98 299.864 329.098V68.3855C299.864 55.5035 289.421 45.0605 276.538 45.0605Z" fill="url(#paint1_linear_953_2287)"/>
<path d="M288.707 71.0094V326.054H151.139V71.0094C151.147 68.4527 152.167 66.0029 153.975 64.195C155.783 62.3871 158.233 61.3679 160.789 61.36H196.24C196.244 63.5216 197.105 65.5934 198.635 67.1211C200.164 68.6489 202.237 69.5079 204.398 69.5099H236.378C237.451 69.5128 238.515 69.3041 239.508 68.8956C240.501 68.487 241.403 67.8867 242.164 67.1291C242.924 66.3714 243.528 65.4712 243.94 64.48C244.352 63.4888 244.565 62.426 244.566 61.3525H279.057C281.616 61.3565 284.07 62.3754 285.879 64.1858C287.688 65.9962 288.705 68.4501 288.707 71.0094Z" fill="url(#paint2_linear_953_2287)"/>
<path opacity="0.24" d="M280.939 257.196H157.4V319.958H280.939V257.196Z" fill="#68FDF3"/>
<path opacity="0.51" d="M281.876 119.227H157.108V239.293H281.876V119.227Z" fill="#68FDF3"/>
<path d="M210.104 280.356L217.19 273.354L221.944 274.426V275.783L214.468 283.933L208.162 284.225L210.104 280.356Z" fill="#606161"/>
<path d="M216.643 274.358L220.249 275.356L213.404 282.396L210.772 282.418L211.214 279.644L216.643 274.358Z" fill="url(#paint3_linear_953_2287)"/>
<path d="M176.633 300.548C176.633 300.548 203.918 287.997 209.092 290.006C214.266 292.015 228.062 316.847 228.062 316.847L218.322 316.652L202.801 303.262L189.604 314.321L170.424 313.181L176.633 300.548Z" fill="#606161"/>
<path d="M176.633 300.548C176.633 300.548 203.918 287.997 209.092 290.006C214.266 292.015 228.062 316.847 228.062 316.847L218.322 316.652L202.801 303.262L189.604 314.321L170.424 313.181L176.633 300.548Z" fill="url(#paint4_linear_953_2287)"/>
<path d="M154.896 319.269C154.896 319.269 156.74 325.574 161.689 326.256C166.638 326.939 240.479 325.177 240.479 325.177C241.087 324.833 241.61 324.359 242.012 323.788C242.414 323.218 242.684 322.565 242.804 321.878C243.388 319.351 241.836 316.63 241.836 316.63L180.037 309.484L154.896 319.269Z" fill="#606161"/>
<path d="M154.896 319.269C154.896 319.269 156.74 325.574 161.689 326.256C166.638 326.939 240.479 325.177 240.479 325.177C241.087 324.833 241.61 324.359 242.012 323.788C242.414 323.218 242.684 322.565 242.804 321.878C243.388 319.351 241.836 316.63 241.836 316.63L180.037 309.484L154.896 319.269Z" fill="url(#paint5_linear_953_2287)"/>
<path d="M205.838 284.023C207.946 284.052 210.003 284.678 211.769 285.83C212.64 286.416 213.35 287.211 213.835 288.142C214.319 289.073 214.563 290.111 214.543 291.16C214.549 291.466 214.452 291.765 214.266 292.008C214.046 292.217 213.752 292.33 213.448 292.323C211.776 292.375 210.712 290.426 209.092 290.006C208.05 289.736 206.955 290.141 205.883 290.073C205.246 290.024 204.631 289.814 204.099 289.461C203.566 289.108 203.132 288.624 202.839 288.056C202.596 287.576 202.463 287.047 202.45 286.509C202.437 285.971 202.544 285.437 202.764 284.945C203.371 283.895 204.721 283.94 205.838 284.023Z" fill="#F4A982"/>
<path d="M188.247 283.535C188.24 283.634 188.252 283.733 188.283 283.827C188.314 283.921 188.363 284.008 188.427 284.083C188.581 284.186 188.768 284.229 188.952 284.203L203.439 283.918C203.79 285.663 203.807 287.459 203.491 289.211C203.464 289.499 203.358 289.774 203.184 290.006C202.877 290.271 202.487 290.42 202.081 290.426C195.962 291.215 189.935 292.601 184.086 294.564C183.5 294.831 182.851 294.93 182.211 294.849C181.027 294.587 180.487 293.222 180.239 292.038C179.407 288.041 179.715 283.903 179.242 279.847C179.01 277.875 178.612 275.783 179.43 273.968C180.179 272.289 185.578 268.15 186.718 270.819C187.468 272.589 187.415 275.251 187.64 277.155C187.91 279.274 188.112 281.401 188.247 283.535Z" fill="#68FDF3"/>
<path d="M188.247 283.535C188.24 283.634 188.252 283.733 188.283 283.827C188.314 283.921 188.363 284.008 188.427 284.083C188.581 284.186 188.768 284.229 188.952 284.203L203.439 283.918C203.79 285.663 203.807 287.459 203.491 289.211C203.464 289.499 203.358 289.774 203.184 290.006C202.877 290.271 202.487 290.42 202.081 290.426C195.962 291.215 189.935 292.601 184.086 294.564C183.5 294.831 182.851 294.93 182.211 294.849C181.027 294.587 180.487 293.222 180.239 292.038C179.407 288.041 179.715 283.903 179.242 279.847C179.01 277.875 178.612 275.783 179.43 273.968C180.179 272.289 185.578 268.15 186.718 270.819C187.468 272.589 187.415 275.251 187.64 277.155C187.91 279.274 188.112 281.401 188.247 283.535Z" fill="url(#paint6_linear_953_2287)"/>
<path d="M206.055 284.128C206.577 282.903 207.343 281.799 208.308 280.882C209.273 279.965 210.415 279.256 211.664 278.797C212.249 279.802 210.382 281.196 211.177 282.051C211.339 282.178 211.527 282.269 211.727 282.318C211.927 282.367 212.136 282.373 212.339 282.336L217.138 282.133C217.286 282.108 217.439 282.14 217.565 282.223C217.653 282.315 217.706 282.434 217.715 282.561C217.733 283.043 217.635 283.522 217.429 283.958C217.223 284.394 216.914 284.773 216.53 285.065C215.78 285.702 214.941 286.167 214.236 286.819C213.089 287.876 212.361 289.436 210.952 290.118C209.887 290.636 208.627 290.553 207.517 290.95C206.153 291.445 204.878 292.69 203.483 292.27C202.816 292.075 203.566 288.139 203.903 287.689C204.781 286.606 205.505 285.408 206.055 284.128Z" fill="#F4A982"/>
<path d="M185.998 260.345C186.845 261.1 187.759 261.778 188.727 262.37C189.093 262.637 189.534 262.782 189.987 262.782C190.497 262.682 190.951 262.396 191.262 261.98C192.131 261.034 192.85 259.959 193.391 258.793C193.454 258.619 193.554 258.46 193.683 258.328C194.133 257.931 194.861 258.328 195.43 258.118C195.637 258.034 195.816 257.894 195.949 257.714C196.081 257.534 196.161 257.321 196.18 257.099C196.219 256.657 196.186 256.211 196.083 255.779C195.901 254.803 195.845 253.808 195.918 252.818C196.075 251.236 196.705 249.661 196.383 248.109C195.993 246.768 195.209 245.574 194.133 244.683C193.412 243.936 192.57 243.315 191.644 242.846C190.545 242.397 189.367 242.173 188.18 242.186C186.731 242.034 185.271 242.346 184.011 243.078C182.849 243.888 182.204 245.238 181.612 246.527L176.565 257.519C176.41 257.804 176.33 258.124 176.333 258.448C176.385 258.726 176.509 258.984 176.693 259.198C177.705 260.632 179.037 261.81 180.584 262.639C181.454 263.104 182.991 263.742 183.943 263.142C184.896 262.542 185.331 261.11 185.998 260.345Z" fill="#F4A982"/>
<path d="M201.204 246.332C201.94 245.49 202.447 244.472 202.675 243.377C202.904 242.282 202.847 241.146 202.509 240.079C202.416 239.73 202.235 239.41 201.984 239.15C201.63 238.893 201.218 238.729 200.784 238.67C197.912 238.016 195.151 236.945 192.589 235.491C191.157 234.674 189.702 233.714 188.09 233.662C187.195 233.65 186.316 233.905 185.567 234.395C184.817 234.885 184.231 235.588 183.883 236.413C183.465 236.153 182.989 235.999 182.497 235.967C182.006 235.934 181.513 236.023 181.064 236.226C180.165 236.642 179.415 237.322 178.912 238.175C177.518 240.424 177.458 243.183 177.413 245.808L177.36 254.31C177.35 254.467 177.37 254.625 177.42 254.775C177.508 254.936 177.648 255.062 177.816 255.134C177.985 255.206 178.173 255.22 178.35 255.172C178.702 255.074 179.026 254.894 179.295 254.647C180.397 253.777 181.484 252.893 182.571 252.001C182.085 251.272 181.865 250.398 181.95 249.526C182.034 248.654 182.418 247.838 183.036 247.217C183.183 247.057 183.373 246.942 183.584 246.887C183.765 246.879 183.945 246.914 184.11 246.988C184.276 247.062 184.421 247.174 184.536 247.315C185.197 248.043 185.555 248.997 185.537 249.981C185.519 250.964 185.126 251.904 184.438 252.608C185.65 252.144 186.628 251.219 187.16 250.036C187.677 248.859 188.353 247.759 189.17 246.767C190.069 245.853 191.562 245.343 192.649 246.018C194.148 246.94 194.366 248.477 196.398 248.477C197.304 248.472 198.199 248.279 199.027 247.91C199.854 247.541 200.596 247.004 201.204 246.332Z" fill="#606161"/>
<path d="M201.204 246.332C201.94 245.49 202.447 244.472 202.675 243.377C202.904 242.282 202.847 241.146 202.509 240.079C202.416 239.73 202.235 239.41 201.984 239.15C201.63 238.893 201.218 238.729 200.784 238.67C197.912 238.016 195.151 236.945 192.589 235.491C191.157 234.674 189.702 233.714 188.09 233.662C187.195 233.65 186.316 233.905 185.567 234.395C184.817 234.885 184.231 235.588 183.883 236.413C183.465 236.153 182.989 235.999 182.497 235.967C182.006 235.934 181.513 236.023 181.064 236.226C180.165 236.642 179.415 237.322 178.912 238.175C177.518 240.424 177.458 243.183 177.413 245.808L177.36 254.31C177.35 254.467 177.37 254.625 177.42 254.775C177.508 254.936 177.648 255.062 177.816 255.134C177.985 255.206 178.173 255.22 178.35 255.172C178.702 255.074 179.026 254.894 179.295 254.647C180.397 253.777 181.484 252.893 182.571 252.001C182.085 251.272 181.865 250.398 181.95 249.526C182.034 248.654 182.418 247.838 183.036 247.217C183.183 247.057 183.373 246.942 183.584 246.887C183.765 246.879 183.945 246.914 184.11 246.988C184.276 247.062 184.421 247.174 184.536 247.315C185.197 248.043 185.555 248.997 185.537 249.981C185.519 250.964 185.126 251.904 184.438 252.608C185.65 252.144 186.628 251.219 187.16 250.036C187.677 248.859 188.353 247.759 189.17 246.767C190.069 245.853 191.562 245.343 192.649 246.018C194.148 246.94 194.366 248.477 196.398 248.477C197.304 248.472 198.199 248.279 199.027 247.91C199.854 247.541 200.596 247.004 201.204 246.332Z" fill="url(#paint7_linear_953_2287)"/>
<path d="M179.97 302.774C180.225 305.023 180.629 307.317 180.037 309.521C179.355 312.026 177.443 314.087 175.276 315.699C170.957 318.848 165.744 320.532 160.4 320.505C157.438 320.505 154.116 319.756 152.632 317.334C151.649 315.752 151.702 313.81 151.784 311.981L152.212 302.459C152.519 295.546 152.841 288.581 154.604 281.863C156.366 275.145 159.71 268.615 165.221 263.981C166.993 262.41 169.082 261.239 171.347 260.547C179.842 258.216 189.155 263.426 186.148 272.004C182.459 282.523 178.68 291.37 179.97 302.774Z" fill="#68FDF3"/>
<path d="M167.253 302.219C167.38 302.969 166.983 304.903 167.388 305.555C168.362 307.1 169.135 318.661 170.912 318.219C172.689 317.776 178.275 311.853 179.707 310.721C180.952 309.732 180.157 300.854 179.707 299.317C179.448 298.678 179.072 298.093 178.597 297.593C176.835 295.344 176.393 292.3 176.348 289.428C176.303 286.557 176.588 283.64 176.048 280.821C175.478 277.822 173.619 274.448 170.409 273.781C166.173 272.911 166.12 275.115 166.975 278.017C169.255 285.739 165.948 294.279 167.253 302.219Z" fill="url(#paint8_linear_953_2287)"/>
<path d="M247.452 318.084C247.94 318.674 248.184 319.427 248.135 320.191C248.2 320.79 248.182 321.396 248.082 321.99C247.981 322.593 247.647 323.131 247.152 323.49C246.542 323.793 245.857 323.913 245.18 323.835L243.403 323.79C242.793 323.809 242.183 323.733 241.596 323.565C241.304 323.48 241.035 323.329 240.81 323.124C240.585 322.918 240.41 322.664 240.299 322.38C240.176 321.939 240.176 321.472 240.299 321.031C240.629 319.531 241.049 317.484 242.826 317.469C244.048 317.447 246.545 317.252 247.452 318.084Z" fill="#F4A982"/>
<path d="M251.899 304.618C250.337 307.851 248.585 310.988 246.65 314.013C246.007 314.846 245.605 315.839 245.488 316.884C245.549 317.588 245.7 318.281 245.938 318.946C246.232 320.038 246.311 321.176 246.17 322.298C246.047 322.93 245.979 323.573 245.968 324.217C245.966 324.54 246.042 324.858 246.19 325.145C246.337 325.433 246.552 325.68 246.815 325.867C247.237 326.081 247.707 326.182 248.18 326.159L253.826 326.399C254.17 326.433 254.517 326.41 254.853 326.331C255.484 326.08 255.999 325.605 256.3 324.997C258.962 320.648 258.085 315.1 259.007 310.084C259.39 308.007 260.094 305.968 260.147 303.854C260.209 303.235 260.139 302.61 259.941 302.021C259.743 301.432 259.422 300.891 259 300.435C258.07 299.61 256.338 299.685 255.813 300.802" fill="#606161"/>
<path d="M251.899 304.618C250.337 307.851 248.585 310.988 246.65 314.013C246.007 314.845 245.605 315.839 245.488 316.884C245.549 317.588 245.7 318.281 245.938 318.946C246.232 320.038 246.311 321.176 246.17 322.297C246.047 322.93 245.979 323.572 245.968 324.217C245.966 324.54 246.042 324.858 246.19 325.145C246.337 325.432 246.552 325.68 246.815 325.866C247.237 326.081 247.707 326.182 248.18 326.159C250.062 326.241 249.927 326.091 251.809 326.159C252.153 326.187 252.5 326.161 252.836 326.084C253.467 325.833 253.982 325.357 254.283 324.749C256.945 320.401 256.713 315.557 257.635 310.541C258.017 308.464 258.722 306.425 258.775 304.311C258.837 303.692 258.767 303.067 258.569 302.478C258.372 301.888 258.05 301.348 257.627 300.892C256.698 300.06 256.338 299.662 255.813 300.787" fill="url(#paint9_linear_953_2287)"/>
<path d="M167.448 273.833C167.448 273.833 167.32 265.586 174.691 264.903C182.061 264.221 183.231 272.019 182.976 274.193C182.721 276.367 184.138 288.806 184.138 288.806L203.933 287.516L204.683 293.207C204.683 293.207 176.873 301.612 175.321 299.805C173.769 297.998 171.834 294.526 167.448 273.833Z" fill="#68FDF3"/>
<path d="M159.732 270.265C159.732 270.265 164.891 270.73 168.25 269.171C171.609 267.611 180.659 265.849 183.366 266.539C186.59 267.364 186.298 265.039 186.298 265.039L173.724 261.141C173.724 261.141 162.701 265.437 161.764 267.236C161.196 268.315 160.515 269.331 159.732 270.265Z" fill="url(#paint10_linear_953_2287)"/>
<path d="M176.76 255.981C175.463 254.782 174.083 253.537 172.359 253.147C170.634 252.758 168.497 253.59 168.115 255.314C167.972 255.937 167.957 256.754 167.365 256.956C166.99 257.084 166.615 256.866 166.195 256.881C165.904 256.919 165.628 257.036 165.398 257.22C165.168 257.404 164.992 257.647 164.891 257.923C164.643 258.463 164.553 259.055 164.306 259.588C163.691 260.945 162.251 261.672 161.127 262.647C160.002 263.621 159.132 265.346 160.032 266.531C160.932 267.715 162.551 267.415 163.879 267.055C167.185 266.156 170.432 264.956 173.821 264.424C177.21 263.891 180.847 264.079 183.808 265.803C187.063 267.708 186.973 263.951 184.663 262.617C181.664 260.892 179.332 258.321 176.76 255.981Z" fill="#68FDF3"/>
<path d="M176.093 260.135C175.244 260.023 174.424 259.756 173.671 259.348C171.986 258.577 170.259 257.901 168.497 257.324C168.399 257.299 168.307 257.253 168.227 257.189C168.136 257.092 168.078 256.968 168.062 256.836C167.912 256.087 168.122 254.677 169.007 254.55C169.704 254.445 171.054 255.449 171.624 255.802C173.41 256.906 174.935 258.384 176.093 260.135Z" fill="url(#paint11_linear_953_2287)"/>
<path d="M174.136 261.448C173.281 261.395 172.846 262.385 168.385 261.508C166.57 261.148 166.683 261.425 164.921 260.848C164.822 260.823 164.73 260.777 164.651 260.713C164.56 260.616 164.502 260.493 164.486 260.361C164.336 259.649 164.546 258.202 165.431 258.074C166.128 257.969 167.478 258.974 168.048 259.326C169.825 260.451 170.852 261.351 174.136 261.448Z" fill="url(#paint12_linear_953_2287)"/>
<path opacity="0.24" d="M171.564 114.533C177.652 114.533 182.586 109.599 182.586 103.512C182.586 97.4247 177.652 92.4902 171.564 92.4902C165.477 92.4902 160.542 97.4247 160.542 103.512C160.542 109.599 165.477 114.533 171.564 114.533Z" fill="#68FDF3"/>
<path opacity="0.51" d="M233.408 97.6484H187.752V102.964H233.408V97.6484Z" fill="#68FDF3"/>
<path opacity="0.24" d="M249.874 107.732H187.752V110.387H249.874V107.732Z" fill="#68FDF3"/>
<path d="M295.553 202.216C295.553 220.398 314.478 235.123 337.812 235.123C341.733 235.137 345.642 234.702 349.464 233.826L367.909 243.266L360.471 229.957C372.251 224.154 380.049 213.935 380.049 202.216C380.049 184.027 361.124 169.31 337.782 169.31C314.44 169.31 295.553 184.035 295.553 202.216Z" fill="#68FDF3"/>
<path d="M294.585 201.752C294.585 219.941 313.511 234.659 336.845 234.659C340.766 234.673 344.675 234.238 348.497 233.362L366.942 242.801L359.534 229.463C371.314 223.66 379.112 213.448 379.112 201.722C379.112 183.541 360.186 168.815 336.845 168.815C313.503 168.815 294.585 183.571 294.585 201.752Z" fill="url(#paint13_linear_953_2287)"/>
<path d="M322.186 110.357C322.186 110.357 316.503 102.904 311.179 110.005C305.855 117.105 323.251 125.629 323.251 125.629C323.251 125.629 335.683 116.752 334.266 111.429C332.848 106.106 325.028 104.681 322.186 110.357Z" fill="white"/>
<path d="M109.127 129.146C109.127 129.146 104.381 122.915 99.9347 128.846C95.4883 134.777 110.02 141.892 110.02 141.892C110.02 141.892 120.39 134.477 119.205 130.031C118.902 128.979 118.287 128.043 117.442 127.347C116.597 126.651 115.56 126.227 114.47 126.131C113.379 126.035 112.285 126.272 111.331 126.81C110.377 127.348 109.609 128.163 109.127 129.146Z" fill="white"/>
<path d="M355.538 131.74C355.538 131.74 347.882 121.693 340.699 131.26C333.516 140.827 356.97 152.313 356.97 152.313C356.97 152.313 373.72 140.354 371.808 133.179C369.896 126.004 359.332 124.062 355.538 131.74Z" fill="white"/>
<path d="M123.846 105.199C123.846 105.199 120.434 100.7 117.233 104.989C114.031 109.277 124.491 114.376 124.491 114.376C124.491 114.376 131.952 109.037 131.104 105.843C130.886 105.086 130.444 104.412 129.835 103.911C129.227 103.409 128.481 103.104 127.696 103.034C126.911 102.964 126.123 103.134 125.436 103.52C124.749 103.906 124.194 104.491 123.846 105.199Z" fill="white"/>
</g>
<defs>
<linearGradient id="paint0_linear_953_2287" x1="117.09" y1="277.613" x2="106.872" y2="32.3374" gradientUnits="userSpaceOnUse">
<stop stop-color="white" stop-opacity="0"/>
<stop offset="0.95" stop-color="white"/>
</linearGradient>
<linearGradient id="paint1_linear_953_2287" x1="220.302" y1="45.0605" x2="220.302" y2="352.423" gradientUnits="userSpaceOnUse">
<stop stop-color="#00D4FF"/>
<stop offset="1" stop-color="#68FDF3"/>
</linearGradient>
<linearGradient id="paint2_linear_953_2287" x1="33576" y1="195917" x2="93910.1" y2="6419.07" gradientUnits="userSpaceOnUse">
<stop stop-color="white" stop-opacity="0"/>
<stop offset="0.95" stop-color="white"/>
</linearGradient>
<linearGradient id="paint3_linear_953_2287" x1="2911.51" y1="3391.76" x2="2939.2" y2="3194.93" gradientUnits="userSpaceOnUse">
<stop stop-color="white" stop-opacity="0"/>
<stop offset="0.95" stop-color="white"/>
</linearGradient>
<linearGradient id="paint4_linear_953_2287" x1="16616.8" y1="11064.2" x2="16768.5" y2="12058" gradientUnits="userSpaceOnUse">
<stop stop-color="#010101" stop-opacity="0"/>
<stop offset="0.95" stop-color="#010101"/>
</linearGradient>
<linearGradient id="paint5_linear_953_2287" x1="25838.7" y1="7401.92" x2="25850.4" y2="7875.4" gradientUnits="userSpaceOnUse">
<stop stop-color="#010101" stop-opacity="0"/>
<stop offset="0.95" stop-color="#010101"/>
</linearGradient>
<linearGradient id="paint6_linear_953_2287" x1="7277.12" y1="9520.12" x2="6488.85" y2="11414.2" gradientUnits="userSpaceOnUse">
<stop stop-color="#010101" stop-opacity="0"/>
<stop offset="0.95" stop-color="#010101"/>
</linearGradient>
<linearGradient id="paint7_linear_953_2287" x1="6906.97" y1="7326.45" x2="7771.18" y2="7326.45" gradientUnits="userSpaceOnUse">
<stop stop-color="#010101" stop-opacity="0"/>
<stop offset="0.95" stop-color="#010101"/>
</linearGradient>
<linearGradient id="paint8_linear_953_2287" x1="3503.14" y1="18218.5" x2="5488.06" y2="18025.1" gradientUnits="userSpaceOnUse">
<stop stop-color="#010101" stop-opacity="0"/>
<stop offset="0.95" stop-color="#010101"/>
</linearGradient>
<linearGradient id="paint9_linear_953_2287" x1="4973.71" y1="11283.1" x2="5209.55" y2="11283.1" gradientUnits="userSpaceOnUse">
<stop stop-color="#010101" stop-opacity="0"/>
<stop offset="0.95" stop-color="#010101"/>
</linearGradient>
<linearGradient id="paint10_linear_953_2287" x1="7035.95" y1="3588.9" x2="7015.39" y2="3018.71" gradientUnits="userSpaceOnUse">
<stop stop-color="#010101" stop-opacity="0"/>
<stop offset="0.95" stop-color="#010101"/>
</linearGradient>
<linearGradient id="paint11_linear_953_2287" x1="2241.31" y1="2208.9" x2="2281.94" y2="1993.6" gradientUnits="userSpaceOnUse">
<stop stop-color="#010101" stop-opacity="0"/>
<stop offset="0.95" stop-color="#010101"/>
</linearGradient>
<linearGradient id="paint12_linear_953_2287" x1="2616.45" y1="1602.23" x2="2629.13" y2="1483.64" gradientUnits="userSpaceOnUse">
<stop stop-color="#010101" stop-opacity="0"/>
<stop offset="0.95" stop-color="#010101"/>
</linearGradient>
<linearGradient id="paint13_linear_953_2287" x1="70177.5" y1="20660.7" x2="87943.7" y2="20822" gradientUnits="userSpaceOnUse">
<stop stop-color="white" stop-opacity="0"/>
<stop offset="0.95" stop-color="white"/>
</linearGradient>
<clipPath id="clip0_953_2287">
<rect width="455" height="377" fill="white"/>
</clipPath>
</defs>
</svg>
