<svg width="44" height="44" viewBox="0 0 44 44" fill="none" xmlns="http://www.w3.org/2000/svg">
<path fill-rule="evenodd" clip-rule="evenodd" d="M22 0C34.15 0 44 9.85 44 22C44 34.15 34.15 44 22 44C9.85 44 0 34.15 0 22C0 9.85 9.85 0 22 0ZM17.586 15.414C17.2217 15.0368 17.0201 14.5316 17.0247 14.0072C17.0292 13.4828 17.2395 12.9812 17.6104 12.6104C17.9812 12.2395 18.4828 12.0292 19.0072 12.0247C19.5316 12.0201 20.0368 12.2217 20.414 12.586L28.414 20.586C28.7889 20.9611 28.9996 21.4697 28.9996 22C28.9996 22.5303 28.7889 23.0389 28.414 23.414L20.414 31.414C20.0368 31.7783 19.5316 31.9799 19.0072 31.9753C18.4828 31.9708 17.9812 31.7605 17.6104 31.3896C17.2395 31.0188 17.0292 30.5172 17.0247 29.9928C17.0201 29.4684 17.2217 28.9632 17.586 28.586L24.172 22L17.586 15.414Z" fill="white"/>
</svg>
