<svg width="44" height="44" viewBox="0 0 44 44" fill="none" xmlns="http://www.w3.org/2000/svg">
<path fill-rule="evenodd" clip-rule="evenodd" d="M22 0C9.85 0 0 9.85 0 22C0 34.15 9.85 44 22 44C34.15 44 44 34.15 44 22C44 9.85 34.15 0 22 0ZM26.414 15.414C26.7783 15.0368 26.9799 14.5316 26.9753 14.0072C26.9708 13.4828 26.7605 12.9812 26.3896 12.6104C26.0188 12.2395 25.5172 12.0292 24.9928 12.0247C24.4684 12.0201 23.9632 12.2217 23.586 12.586L15.586 20.586C15.2111 20.9611 15.0004 21.4697 15.0004 22C15.0004 22.5303 15.2111 23.0389 15.586 23.414L23.586 31.414C23.9632 31.7783 24.4684 31.9799 24.9928 31.9753C25.5172 31.9708 26.0188 31.7605 26.3896 31.3896C26.7605 31.0188 26.9708 30.5172 26.9753 29.9928C26.9799 29.4684 26.7783 28.9632 26.414 28.586L19.828 22L26.414 15.414Z" fill="white"/>
</svg>
