<svg width="190" height="22" viewBox="0 0 190 22" fill="none" xmlns="http://www.w3.org/2000/svg">
<path d="M1.29119 18V4.90909H6.30256C7.24858 4.90909 8.0348 5.05824 8.66122 5.35653C9.2919 5.65057 9.76278 6.05327 10.0739 6.56463C10.3892 7.07599 10.5469 7.65554 10.5469 8.30327C10.5469 8.83594 10.4446 9.2919 10.2401 9.67116C10.0355 10.0462 9.76065 10.3509 9.41548 10.5852C9.07031 10.8196 8.68466 10.9879 8.25852 11.0902V11.218C8.72301 11.2436 9.16832 11.3864 9.59446 11.6463C10.0249 11.902 10.3764 12.2642 10.6491 12.733C10.9219 13.2017 11.0582 13.7685 11.0582 14.4332C11.0582 15.1108 10.8942 15.7202 10.5661 16.2614C10.2379 16.7983 9.74361 17.2223 9.0831 17.5334C8.42259 17.8445 7.59162 18 6.5902 18H1.29119ZM3.66264 16.0185H6.21307C7.07386 16.0185 7.69389 15.8544 8.07315 15.5263C8.45668 15.1939 8.64844 14.7678 8.64844 14.2479C8.64844 13.8601 8.55256 13.5107 8.3608 13.1996C8.16903 12.8842 7.89631 12.6371 7.54261 12.4581C7.18892 12.2749 6.76705 12.1832 6.27699 12.1832H3.66264V16.0185ZM3.66264 10.4766H6.00852C6.41761 10.4766 6.78622 10.402 7.11435 10.2528C7.44247 10.0994 7.70028 9.88423 7.88778 9.60724C8.07955 9.32599 8.17543 8.99361 8.17543 8.61009C8.17543 8.10298 7.99645 7.68537 7.63849 7.35724C7.2848 7.02912 6.75852 6.86506 6.05966 6.86506H3.66264V10.4766ZM17.3017 18.1918C16.3429 18.1918 15.5119 17.9808 14.8088 17.5589C14.1056 17.1371 13.5602 16.5469 13.1724 15.7884C12.7889 15.0298 12.5971 14.1435 12.5971 13.1293C12.5971 12.1151 12.7889 11.2266 13.1724 10.4638C13.5602 9.70099 14.1056 9.10866 14.8088 8.68679C15.5119 8.26491 16.3429 8.05398 17.3017 8.05398C18.2605 8.05398 19.0914 8.26491 19.7946 8.68679C20.4977 9.10866 21.041 9.70099 21.4245 10.4638C21.8123 11.2266 22.0062 12.1151 22.0062 13.1293C22.0062 14.1435 21.8123 15.0298 21.4245 15.7884C21.041 16.5469 20.4977 17.1371 19.7946 17.5589C19.0914 17.9808 18.2605 18.1918 17.3017 18.1918ZM17.3145 16.3381C17.8343 16.3381 18.269 16.1953 18.6184 15.9098C18.9679 15.62 19.2278 15.2322 19.3983 14.7464C19.573 14.2607 19.6603 13.7195 19.6603 13.1229C19.6603 12.522 19.573 11.9787 19.3983 11.4929C19.2278 11.0028 18.9679 10.6129 18.6184 10.3232C18.269 10.0334 17.8343 9.88849 17.3145 9.88849C16.7818 9.88849 16.3386 10.0334 15.9849 10.3232C15.6355 10.6129 15.3734 11.0028 15.1987 11.4929C15.0282 11.9787 14.943 12.522 14.943 13.1229C14.943 13.7195 15.0282 14.2607 15.1987 14.7464C15.3734 15.2322 15.6355 15.62 15.9849 15.9098C16.3386 16.1953 16.7818 16.3381 17.3145 16.3381ZM28.2528 18.1918C27.294 18.1918 26.4631 17.9808 25.7599 17.5589C25.0568 17.1371 24.5114 16.5469 24.1236 15.7884C23.7401 15.0298 23.5483 14.1435 23.5483 13.1293C23.5483 12.1151 23.7401 11.2266 24.1236 10.4638C24.5114 9.70099 25.0568 9.10866 25.7599 8.68679C26.4631 8.26491 27.294 8.05398 28.2528 8.05398C29.2116 8.05398 30.0426 8.26491 30.7457 8.68679C31.4489 9.10866 31.9922 9.70099 32.3757 10.4638C32.7635 11.2266 32.9574 12.1151 32.9574 13.1293C32.9574 14.1435 32.7635 15.0298 32.3757 15.7884C31.9922 16.5469 31.4489 17.1371 30.7457 17.5589C30.0426 17.9808 29.2116 18.1918 28.2528 18.1918ZM28.2656 16.3381C28.7855 16.3381 29.2202 16.1953 29.5696 15.9098C29.919 15.62 30.179 15.2322 30.3494 14.7464C30.5241 14.2607 30.6115 13.7195 30.6115 13.1229C30.6115 12.522 30.5241 11.9787 30.3494 11.4929C30.179 11.0028 29.919 10.6129 29.5696 10.3232C29.2202 10.0334 28.7855 9.88849 28.2656 9.88849C27.733 9.88849 27.2898 10.0334 26.9361 10.3232C26.5866 10.6129 26.3246 11.0028 26.1499 11.4929C25.9794 11.9787 25.8942 12.522 25.8942 13.1229C25.8942 13.7195 25.9794 14.2607 26.1499 14.7464C26.3246 15.2322 26.5866 15.62 26.9361 15.9098C27.2898 16.1953 27.733 16.3381 28.2656 16.3381ZM37.0307 14.919L37.0243 12.1257H37.3951L40.9235 8.18182H43.6273L39.2871 13.0142H38.8077L37.0307 14.919ZM34.9213 18V4.90909H37.2353V18H34.9213ZM41.0833 18L37.8873 13.532L39.4469 11.902L43.851 18H41.0833ZM45.1694 18V8.18182H47.4833V18H45.1694ZM46.3327 6.78835C45.9663 6.78835 45.6509 6.6669 45.3867 6.42401C45.1225 6.17685 44.9904 5.88068 44.9904 5.53551C44.9904 5.18608 45.1225 4.88991 45.3867 4.64702C45.6509 4.39986 45.9663 4.27628 46.3327 4.27628C46.7035 4.27628 47.0188 4.39986 47.2788 4.64702C47.543 4.88991 47.6751 5.18608 47.6751 5.53551C47.6751 5.88068 47.543 6.17685 47.2788 6.42401C47.0188 6.6669 46.7035 6.78835 46.3327 6.78835ZM52.1767 12.2472V18H49.8627V8.18182H52.0744V9.85014H52.1895C52.4153 9.30043 52.7754 8.86364 53.2697 8.53977C53.7683 8.21591 54.3841 8.05398 55.117 8.05398C55.7946 8.05398 56.3848 8.19886 56.8876 8.48864C57.3947 8.77841 57.7868 9.19815 58.0637 9.74787C58.345 10.2976 58.4835 10.9645 58.4792 11.7486V18H56.1653V12.1065C56.1653 11.4503 55.9949 10.9368 55.6539 10.5661C55.3173 10.1953 54.8507 10.0099 54.2541 10.0099C53.8493 10.0099 53.4892 10.0994 53.1738 10.2784C52.8627 10.4531 52.6177 10.7067 52.4387 11.0391C52.264 11.3714 52.1767 11.7741 52.1767 12.2472ZM65.1014 21.8864C64.2704 21.8864 63.5566 21.7734 62.96 21.5476C62.3635 21.326 61.8841 21.0277 61.5218 20.6527C61.1596 20.2777 60.9082 19.8622 60.7676 19.4062L62.8514 18.9013C62.9451 19.093 63.0815 19.2827 63.2605 19.4702C63.4395 19.6619 63.6802 19.8196 63.9828 19.9432C64.2896 20.071 64.6752 20.1349 65.1397 20.1349C65.796 20.1349 66.3393 19.9751 66.7697 19.6555C67.2001 19.3402 67.4153 18.8203 67.4153 18.0959V16.2358H67.3002C67.1809 16.4744 67.0062 16.7195 66.7761 16.9709C66.5502 17.2223 66.2498 17.4332 65.8748 17.6037C65.5041 17.7741 65.0375 17.8594 64.475 17.8594C63.7207 17.8594 63.0368 17.6825 62.4231 17.3288C61.8137 16.9709 61.3279 16.4382 60.9657 15.7308C60.6078 15.0192 60.4288 14.1286 60.4288 13.0589C60.4288 11.9808 60.6078 11.071 60.9657 10.3295C61.3279 9.58381 61.8159 9.01918 62.4295 8.63565C63.0431 8.24787 63.7271 8.05398 64.4814 8.05398C65.0566 8.05398 65.5297 8.15199 65.9004 8.34801C66.2754 8.53977 66.5737 8.77202 66.7953 9.04474C67.0169 9.31321 67.1852 9.56676 67.3002 9.8054H67.4281V8.18182H69.7101V18.1598C69.7101 18.9993 69.5098 19.6939 69.1092 20.2436C68.7086 20.7933 68.161 21.2045 67.4664 21.4773C66.7718 21.75 65.9835 21.8864 65.1014 21.8864ZM65.1206 16.044C65.6106 16.044 66.0282 15.9247 66.3734 15.6861C66.7186 15.4474 66.9806 15.1044 67.1596 14.657C67.3386 14.2095 67.4281 13.6726 67.4281 13.0462C67.4281 12.4283 67.3386 11.8871 67.1596 11.4226C66.9849 10.9581 66.725 10.598 66.3798 10.3423C66.0389 10.0824 65.6191 9.95241 65.1206 9.95241C64.6049 9.95241 64.1745 10.0866 63.8294 10.3551C63.4842 10.6236 63.2243 10.9922 63.0495 11.4609C62.8748 11.9254 62.7875 12.4538 62.7875 13.0462C62.7875 13.647 62.8748 14.1733 63.0495 14.625C63.2285 15.0724 63.4906 15.4219 63.8358 15.6733C64.1852 15.9205 64.6135 16.044 65.1206 16.044ZM79.8414 10.777L77.7321 11.0071C77.6724 10.794 77.568 10.5938 77.4189 10.4062C77.274 10.2188 77.0779 10.0675 76.8308 9.95241C76.5836 9.83736 76.2811 9.77983 75.9231 9.77983C75.4416 9.77983 75.0368 9.88423 74.7086 10.093C74.3848 10.3018 74.225 10.5724 74.2292 10.9048C74.225 11.1903 74.3294 11.4226 74.5424 11.6016C74.7598 11.7805 75.1177 11.9276 75.6163 12.0426L77.291 12.4006C78.22 12.6009 78.9103 12.9183 79.362 13.353C79.818 13.7876 80.0481 14.3565 80.0524 15.0597C80.0481 15.6776 79.867 16.223 79.5091 16.696C79.1554 17.1648 78.6632 17.5312 78.0325 17.7955C77.4018 18.0597 76.6774 18.1918 75.8592 18.1918C74.6575 18.1918 73.6902 17.9403 72.9572 17.4375C72.2243 16.9304 71.7875 16.2251 71.6468 15.3217L73.9032 15.1044C74.0055 15.5476 74.2228 15.8821 74.5552 16.108C74.8876 16.3338 75.3201 16.4467 75.8528 16.4467C76.4025 16.4467 76.8436 16.3338 77.176 16.108C77.5126 15.8821 77.6809 15.603 77.6809 15.2706C77.6809 14.9893 77.5723 14.7571 77.3549 14.5739C77.1419 14.3906 76.8095 14.25 76.3578 14.152L74.6831 13.8004C73.7413 13.6044 73.0446 13.2741 72.5929 12.8097C72.1412 12.3409 71.9174 11.7486 71.9217 11.0327C71.9174 10.4276 72.0815 9.90341 72.4139 9.46023C72.7505 9.01278 73.2172 8.66761 73.8137 8.42472C74.4146 8.17756 75.1071 8.05398 75.8912 8.05398C77.0417 8.05398 77.9473 8.29901 78.6078 8.78906C79.2726 9.27912 79.6838 9.94176 79.8414 10.777ZM90.3372 18.1918C89.4423 18.1918 88.6731 18.0298 88.0297 17.706C87.3862 17.3821 86.8897 16.9453 86.5403 16.3956C86.1951 15.8416 86.0225 15.2173 86.0225 14.5227C86.0225 13.9986 86.1291 13.5341 86.3422 13.1293C86.5595 12.7244 86.8578 12.3494 87.237 12.0043C87.6206 11.6591 88.0637 11.3161 88.5666 10.9751L90.8869 9.39631C91.2278 9.17472 91.4856 8.94034 91.6603 8.69318C91.8393 8.44602 91.9288 8.15625 91.9288 7.82386C91.9288 7.54261 91.8095 7.27628 91.5708 7.02486C91.3365 6.77344 91.0126 6.64773 90.5993 6.64773C90.3223 6.64773 90.0772 6.71378 89.8642 6.84588C89.6554 6.97372 89.4913 7.14205 89.372 7.35085C89.2569 7.55966 89.1994 7.78125 89.1994 8.01562C89.1994 8.30114 89.2782 8.59091 89.4359 8.88494C89.5978 9.17898 89.8066 9.48366 90.0623 9.79901C90.3223 10.1143 90.5993 10.4489 90.8933 10.8026L97.036 18H94.5304L89.4295 12.1577C89.0502 11.7145 88.6838 11.2777 88.3301 10.8473C87.9806 10.4169 87.693 9.96946 87.4672 9.50497C87.2456 9.03622 87.1348 8.52912 87.1348 7.98366C87.1348 7.36577 87.2775 6.81392 87.563 6.32812C87.8485 5.83807 88.247 5.45241 88.7583 5.17116C89.274 4.88991 89.877 4.74929 90.5673 4.74929C91.2576 4.74929 91.85 4.88565 92.3443 5.15838C92.8386 5.43111 93.22 5.79332 93.4885 6.24503C93.7569 6.69673 93.8912 7.18892 93.8912 7.72159C93.8912 8.33949 93.7377 8.89347 93.4309 9.38352C93.1241 9.86932 92.698 10.3104 92.1525 10.7067L89.5062 12.6435C89.0716 12.9588 88.7605 13.2784 88.573 13.6023C88.3855 13.9219 88.2917 14.1946 88.2917 14.4205C88.2917 14.7656 88.3791 15.0788 88.5538 15.3601C88.7285 15.6413 88.9735 15.8672 89.2889 16.0376C89.6085 16.2038 89.9814 16.2869 90.4075 16.2869C90.8762 16.2869 91.3386 16.1825 91.7946 15.9737C92.2505 15.7607 92.666 15.4581 93.041 15.0661C93.416 14.674 93.7143 14.2053 93.9359 13.6598C94.1575 13.1101 94.2683 12.5007 94.2683 11.8317H96.2562C96.2562 12.6584 96.1646 13.3786 95.9814 13.9922C95.7981 14.6016 95.5616 15.1172 95.2718 15.5391C94.9821 15.9567 94.6752 16.2912 94.3514 16.5426C94.2491 16.6151 94.1511 16.6875 94.0574 16.7599C93.9636 16.8324 93.8656 16.9048 93.7633 16.9773C93.3031 17.3949 92.764 17.7017 92.1461 17.8977C91.5325 18.0938 90.9295 18.1918 90.3372 18.1918ZM102.928 18V4.90909H107.837C108.843 4.90909 109.686 5.09659 110.368 5.47159C111.054 5.84659 111.572 6.36222 111.922 7.01847C112.275 7.67045 112.452 8.41193 112.452 9.2429C112.452 10.0824 112.275 10.8281 111.922 11.4801C111.568 12.1321 111.046 12.6456 110.355 13.0206C109.665 13.3913 108.815 13.5767 107.805 13.5767H104.551V11.6271H107.485C108.074 11.6271 108.555 11.5249 108.93 11.3203C109.305 11.1158 109.582 10.8345 109.761 10.4766C109.944 10.1186 110.036 9.70739 110.036 9.2429C110.036 8.77841 109.944 8.36932 109.761 8.01562C109.582 7.66193 109.303 7.38707 108.924 7.19105C108.549 6.99077 108.065 6.89062 107.473 6.89062H105.299V18H102.928ZM117.059 18.1982C116.437 18.1982 115.877 18.0874 115.378 17.8658C114.884 17.6399 114.492 17.3075 114.202 16.8686C113.916 16.4297 113.774 15.8885 113.774 15.245C113.774 14.6911 113.876 14.233 114.08 13.8707C114.285 13.5085 114.564 13.2188 114.918 13.0014C115.271 12.7841 115.67 12.62 116.113 12.5092C116.561 12.3942 117.023 12.3111 117.5 12.2599C118.075 12.2003 118.542 12.147 118.9 12.1001C119.258 12.049 119.518 11.9723 119.68 11.87C119.846 11.7635 119.929 11.5994 119.929 11.3778V11.3395C119.929 10.858 119.786 10.4851 119.501 10.2209C119.215 9.95668 118.804 9.82457 118.267 9.82457C117.7 9.82457 117.251 9.94815 116.919 10.1953C116.59 10.4425 116.369 10.7344 116.254 11.071L114.093 10.7642C114.264 10.1676 114.545 9.66903 114.937 9.26847C115.329 8.86364 115.808 8.56108 116.375 8.3608C116.942 8.15625 117.568 8.05398 118.254 8.05398C118.727 8.05398 119.198 8.10938 119.667 8.22017C120.136 8.33097 120.564 8.5142 120.952 8.76989C121.34 9.02131 121.651 9.36435 121.885 9.79901C122.124 10.2337 122.243 10.777 122.243 11.429V18H120.019V16.6513H119.942C119.801 16.924 119.603 17.1797 119.347 17.4183C119.096 17.6527 118.779 17.8423 118.395 17.9872C118.016 18.1278 117.57 18.1982 117.059 18.1982ZM117.66 16.4979C118.124 16.4979 118.527 16.4062 118.868 16.223C119.209 16.0355 119.471 15.7884 119.654 15.4815C119.842 15.1747 119.936 14.8402 119.936 14.478V13.321C119.863 13.3807 119.74 13.4361 119.565 13.4872C119.394 13.5384 119.203 13.5831 118.99 13.6214C118.776 13.6598 118.566 13.6939 118.357 13.7237C118.148 13.7536 117.967 13.7791 117.813 13.8004C117.468 13.8473 117.159 13.924 116.887 14.0305C116.614 14.1371 116.399 14.2862 116.241 14.478C116.083 14.6655 116.004 14.9084 116.004 15.2067C116.004 15.6328 116.16 15.9545 116.471 16.1719C116.782 16.3892 117.178 16.4979 117.66 16.4979ZM125.656 21.6818C125.341 21.6818 125.049 21.6563 124.781 21.6051C124.517 21.5582 124.306 21.5028 124.148 21.4389L124.685 19.6364C125.021 19.7344 125.322 19.7813 125.586 19.777C125.85 19.7727 126.083 19.6896 126.283 19.5277C126.487 19.37 126.66 19.1058 126.801 18.7351L126.999 18.2045L123.438 8.18182H125.893L128.156 15.5966H128.258L130.527 8.18182H132.988L129.057 19.1889C128.874 19.7088 128.631 20.1541 128.328 20.5249C128.026 20.8999 127.655 21.1854 127.216 21.3814C126.781 21.5817 126.262 21.6818 125.656 21.6818ZM134.589 18V8.18182H136.801V9.85014H136.916C137.121 9.28764 137.459 8.84872 137.932 8.53338C138.405 8.21378 138.97 8.05398 139.626 8.05398C140.291 8.05398 140.851 8.21591 141.307 8.53977C141.768 8.85937 142.091 9.29616 142.279 9.85014H142.381C142.599 9.30469 142.965 8.87003 143.481 8.54616C144.001 8.21804 144.616 8.05398 145.328 8.05398C146.231 8.05398 146.969 8.33949 147.54 8.91051C148.111 9.48153 148.396 10.3146 148.396 11.4098V18H146.076V11.7678C146.076 11.1584 145.914 10.7131 145.59 10.4318C145.266 10.1463 144.87 10.0036 144.401 10.0036C143.843 10.0036 143.406 10.1783 143.091 10.5277C142.78 10.8729 142.624 11.3224 142.624 11.8764V18H140.355V11.6719C140.355 11.1648 140.202 10.7599 139.895 10.4574C139.592 10.1548 139.196 10.0036 138.706 10.0036C138.373 10.0036 138.071 10.0888 137.798 10.2592C137.525 10.4254 137.308 10.6619 137.146 10.9688C136.984 11.2713 136.903 11.625 136.903 12.0298V18H134.589ZM155.09 18.1918C154.106 18.1918 153.256 17.9872 152.54 17.5781C151.828 17.1648 151.281 16.581 150.897 15.8267C150.513 15.0682 150.322 14.1754 150.322 13.1484C150.322 12.1385 150.513 11.2521 150.897 10.4893C151.285 9.7223 151.826 9.12571 152.521 8.69957C153.215 8.26918 154.031 8.05398 154.969 8.05398C155.574 8.05398 156.145 8.15199 156.682 8.34801C157.223 8.53977 157.7 8.83807 158.114 9.2429C158.531 9.64773 158.859 10.1634 159.098 10.7898C159.337 11.4119 159.456 12.1534 159.456 13.0142V13.7237H151.408V12.1641H157.238C157.234 11.7209 157.138 11.3267 156.95 10.9815C156.763 10.6321 156.501 10.3572 156.164 10.157C155.832 9.95668 155.444 9.85653 155.001 9.85653C154.528 9.85653 154.112 9.97159 153.754 10.2017C153.396 10.4276 153.117 10.7259 152.917 11.0966C152.721 11.4631 152.621 11.8658 152.616 12.3047V13.6662C152.616 14.2372 152.721 14.7273 152.93 15.1364C153.138 15.5412 153.43 15.8523 153.805 16.0696C154.18 16.2827 154.619 16.3892 155.122 16.3892C155.459 16.3892 155.763 16.3423 156.036 16.2486C156.309 16.1506 156.545 16.0078 156.746 15.8203C156.946 15.6328 157.097 15.4006 157.2 15.1236L159.36 15.3665C159.224 15.9375 158.964 16.4361 158.58 16.8622C158.201 17.2841 157.715 17.6122 157.123 17.8466C156.531 18.0767 155.853 18.1918 155.09 18.1918ZM163.727 12.2472V18H161.414V8.18182H163.625V9.85014H163.74C163.966 9.30043 164.326 8.86364 164.82 8.53977C165.319 8.21591 165.935 8.05398 166.668 8.05398C167.345 8.05398 167.936 8.19886 168.438 8.48864C168.945 8.77841 169.338 9.19815 169.615 9.74787C169.896 10.2976 170.034 10.9645 170.03 11.7486V18H167.716V12.1065C167.716 11.4503 167.546 10.9368 167.205 10.5661C166.868 10.1953 166.401 10.0099 165.805 10.0099C165.4 10.0099 165.04 10.0994 164.725 10.2784C164.414 10.4531 164.169 10.7067 163.99 11.0391C163.815 11.3714 163.727 11.7741 163.727 12.2472ZM177.285 8.18182V9.97159H171.641V8.18182H177.285ZM173.034 5.82955H175.348V15.0469C175.348 15.358 175.395 15.5966 175.489 15.7628C175.587 15.9247 175.715 16.0355 175.872 16.0952C176.03 16.1548 176.205 16.1847 176.396 16.1847C176.541 16.1847 176.673 16.174 176.793 16.1527C176.916 16.1314 177.01 16.1122 177.074 16.0952L177.464 17.9041C177.34 17.9467 177.164 17.9936 176.933 18.0447C176.708 18.0959 176.431 18.1257 176.102 18.1342C175.523 18.1513 175.001 18.0639 174.536 17.8722C174.072 17.6761 173.703 17.3736 173.431 16.9645C173.162 16.5554 173.03 16.044 173.034 15.4304V5.82955ZM186.839 10.777L184.73 11.0071C184.67 10.794 184.566 10.5938 184.417 10.4062C184.272 10.2188 184.076 10.0675 183.829 9.95241C183.582 9.83736 183.279 9.77983 182.921 9.77983C182.44 9.77983 182.035 9.88423 181.707 10.093C181.383 10.3018 181.223 10.5724 181.227 10.9048C181.223 11.1903 181.327 11.4226 181.54 11.6016C181.758 11.7805 182.116 11.9276 182.614 12.0426L184.289 12.4006C185.218 12.6009 185.908 12.9183 186.36 13.353C186.816 13.7876 187.046 14.3565 187.05 15.0597C187.046 15.6776 186.865 16.223 186.507 16.696C186.153 17.1648 185.661 17.5312 185.031 17.7955C184.4 18.0597 183.675 18.1918 182.857 18.1918C181.656 18.1918 180.688 17.9403 179.955 17.4375C179.222 16.9304 178.786 16.2251 178.645 15.3217L180.901 15.1044C181.004 15.5476 181.221 15.8821 181.553 16.108C181.886 16.3338 182.318 16.4467 182.851 16.4467C183.401 16.4467 183.842 16.3338 184.174 16.108C184.511 15.8821 184.679 15.603 184.679 15.2706C184.679 14.9893 184.57 14.7571 184.353 14.5739C184.14 14.3906 183.808 14.25 183.356 14.152L181.681 13.8004C180.739 13.6044 180.043 13.2741 179.591 12.8097C179.139 12.3409 178.915 11.7486 178.92 11.0327C178.915 10.4276 179.08 9.90341 179.412 9.46023C179.749 9.01278 180.215 8.66761 180.812 8.42472C181.413 8.17756 182.105 8.05398 182.889 8.05398C184.04 8.05398 184.945 8.29901 185.606 8.78906C186.271 9.27912 186.682 9.94176 186.839 10.777Z" fill="#2F2F2F"/>
</svg>
