<svg width="234" height="22" viewBox="0 0 234 22" fill="none" xmlns="http://www.w3.org/2000/svg">
<path d="M13.349 4.90909H15.7204V13.4616C15.7204 14.3991 15.4988 15.2237 15.0557 15.9354C14.6167 16.647 13.9988 17.2031 13.202 17.6037C12.4051 18 11.474 18.1982 10.4086 18.1982C9.33904 18.1982 8.40581 18 7.60893 17.6037C6.81206 17.2031 6.19416 16.647 5.75524 15.9354C5.31632 15.2237 5.09686 14.3991 5.09686 13.4616V4.90909H7.46831V13.2635C7.46831 13.8089 7.58762 14.2947 7.82626 14.7209C8.06916 15.147 8.41007 15.4815 8.84899 15.7244C9.28791 15.9631 9.80779 16.0824 10.4086 16.0824C11.0095 16.0824 11.5294 15.9631 11.9683 15.7244C12.4115 15.4815 12.7524 15.147 12.991 14.7209C13.2297 14.2947 13.349 13.8089 13.349 13.2635V4.90909ZM20.5097 12.2472V18H18.1958V8.18182H20.4074V9.85014H20.5225C20.7483 9.30043 21.1084 8.86364 21.6027 8.53977C22.1013 8.21591 22.7171 8.05398 23.45 8.05398C24.1276 8.05398 24.7178 8.19886 25.2206 8.48864C25.7277 8.77841 26.1198 9.19815 26.3968 9.74787C26.678 10.2976 26.8165 10.9645 26.8122 11.7486V18H24.4983V12.1065C24.4983 11.4503 24.3279 10.9368 23.9869 10.5661C23.6503 10.1953 23.1837 10.0099 22.5871 10.0099C22.1823 10.0099 21.8222 10.0994 21.5068 10.2784C21.1958 10.4531 20.9507 10.7067 20.7718 11.0391C20.597 11.3714 20.5097 11.7741 20.5097 12.2472ZM31.4784 4.90909V18H29.1645V4.90909H31.4784ZM33.8579 18V8.18182H36.1718V18H33.8579ZM35.0212 6.78835C34.6547 6.78835 34.3394 6.6669 34.0752 6.42401C33.811 6.17685 33.6789 5.88068 33.6789 5.53551C33.6789 5.18608 33.811 4.88991 34.0752 4.64702C34.3394 4.39986 34.6547 4.27628 35.0212 4.27628C35.392 4.27628 35.7073 4.39986 35.9672 4.64702C36.2314 4.88991 36.3635 5.18608 36.3635 5.53551C36.3635 5.88068 36.2314 6.17685 35.9672 6.42401C35.7073 6.6669 35.392 6.78835 35.0212 6.78835ZM38.5512 18V8.18182H40.7629V9.85014H40.8779C41.0825 9.28764 41.4213 8.84872 41.8943 8.53338C42.3673 8.21378 42.9319 8.05398 43.5882 8.05398C44.2529 8.05398 44.8133 8.21591 45.2693 8.53977C45.7295 8.85937 46.0534 9.29616 46.2409 9.85014H46.3431C46.5605 9.30469 46.9269 8.87003 47.4426 8.54616C47.9624 8.21804 48.5782 8.05398 49.2899 8.05398C50.1933 8.05398 50.9305 8.33949 51.5015 8.91051C52.0725 9.48153 52.358 10.3146 52.358 11.4098V18H50.0377V11.7678C50.0377 11.1584 49.8758 10.7131 49.5519 10.4318C49.2281 10.1463 48.8318 10.0036 48.363 10.0036C47.8048 10.0036 47.368 10.1783 47.0526 10.5277C46.7416 10.8729 46.586 11.3224 46.586 11.8764V18H44.3169V11.6719C44.3169 11.1648 44.1634 10.7599 43.8566 10.4574C43.5541 10.1548 43.1578 10.0036 42.6677 10.0036C42.3353 10.0036 42.0328 10.0888 41.76 10.2592C41.4873 10.4254 41.27 10.6619 41.108 10.9688C40.9461 11.2713 40.8651 11.625 40.8651 12.0298V18H38.5512ZM54.7055 18V8.18182H57.0194V18H54.7055ZM55.8689 6.78835C55.5024 6.78835 55.1871 6.6669 54.9229 6.42401C54.6586 6.17685 54.5265 5.88068 54.5265 5.53551C54.5265 5.18608 54.6586 4.88991 54.9229 4.64702C55.1871 4.39986 55.5024 4.27628 55.8689 4.27628C56.2396 4.27628 56.555 4.39986 56.8149 4.64702C57.0791 4.88991 57.2112 5.18608 57.2112 5.53551C57.2112 5.88068 57.0791 6.17685 56.8149 6.42401C56.555 6.6669 56.2396 6.78835 55.8689 6.78835ZM64.3016 8.18182V9.97159H58.6574V8.18182H64.3016ZM60.0509 5.82955H62.3648V15.0469C62.3648 15.358 62.4117 15.5966 62.5054 15.7628C62.6034 15.9247 62.7313 16.0355 62.8889 16.0952C63.0466 16.1548 63.2213 16.1847 63.4131 16.1847C63.558 16.1847 63.6901 16.174 63.8094 16.1527C63.933 16.1314 64.0267 16.1122 64.0906 16.0952L64.4806 17.9041C64.357 17.9467 64.1801 17.9936 63.95 18.0447C63.7242 18.0959 63.4472 18.1257 63.1191 18.1342C62.5395 18.1513 62.0175 18.0639 61.553 17.8722C61.0885 17.6761 60.7199 17.3736 60.4472 16.9645C60.1787 16.5554 60.0466 16.044 60.0509 15.4304V5.82955ZM70.4779 18.1918C69.4935 18.1918 68.6434 17.9872 67.9275 17.5781C67.2158 17.1648 66.6682 16.581 66.2847 15.8267C65.9012 15.0682 65.7094 14.1754 65.7094 13.1484C65.7094 12.1385 65.9012 11.2521 66.2847 10.4893C66.6725 9.7223 67.2137 9.12571 67.9083 8.69957C68.6029 8.26918 69.4189 8.05398 70.3564 8.05398C70.9616 8.05398 71.5326 8.15199 72.0695 8.34801C72.6107 8.53977 73.088 8.83807 73.5013 9.2429C73.9189 9.64773 74.2471 10.1634 74.4857 10.7898C74.7243 11.4119 74.8437 12.1534 74.8437 13.0142V13.7237H66.7961V12.1641H72.6256C72.6214 11.7209 72.5255 11.3267 72.338 10.9815C72.1505 10.6321 71.8884 10.3572 71.5518 10.157C71.2194 9.95668 70.8316 9.85653 70.3884 9.85653C69.9154 9.85653 69.4999 9.97159 69.142 10.2017C68.784 10.4276 68.5049 10.7259 68.3046 11.0966C68.1086 11.4631 68.0084 11.8658 68.0042 12.3047V13.6662C68.0042 14.2372 68.1086 14.7273 68.3174 15.1364C68.5262 15.5412 68.8181 15.8523 69.1931 16.0696C69.5681 16.2827 70.007 16.3892 70.5099 16.3892C70.8465 16.3892 71.1512 16.3423 71.4239 16.2486C71.6966 16.1506 71.9331 16.0078 72.1334 15.8203C72.3337 15.6328 72.485 15.4006 72.5873 15.1236L74.7478 15.3665C74.6114 15.9375 74.3515 16.4361 73.968 16.8622C73.5887 17.2841 73.1029 17.6122 72.5106 17.8466C71.9182 18.0767 71.2407 18.1918 70.4779 18.1918ZM80.4447 18.1726C79.6734 18.1726 78.983 17.9744 78.3737 17.5781C77.7643 17.1818 77.2828 16.6065 76.9291 15.8523C76.5754 15.098 76.3985 14.1818 76.3985 13.1037C76.3985 12.0128 76.5775 11.0923 76.9355 10.3423C77.2977 9.58807 77.7856 9.01918 78.3992 8.63565C79.0129 8.24787 79.6968 8.05398 80.4511 8.05398C81.0264 8.05398 81.4994 8.15199 81.8701 8.34801C82.2409 8.53977 82.5349 8.77202 82.7522 9.04474C82.9695 9.31321 83.1379 9.56676 83.2572 9.8054H83.3531V4.90909H85.6734V18H83.3978V16.4531H83.2572C83.1379 16.6918 82.9653 16.9453 82.7394 17.2138C82.5136 17.478 82.2153 17.7038 81.8445 17.8913C81.4738 18.0788 81.0072 18.1726 80.4447 18.1726ZM81.0903 16.2741C81.5803 16.2741 81.998 16.142 82.3431 15.8778C82.6883 15.6094 82.9504 15.2365 83.1294 14.7592C83.3083 14.282 83.3978 13.7259 83.3978 13.0909C83.3978 12.456 83.3083 11.9041 83.1294 11.4354C82.9546 10.9666 82.6947 10.6023 82.3495 10.3423C82.0086 10.0824 81.5889 9.95241 81.0903 9.95241C80.5747 9.95241 80.1443 10.0866 79.7991 10.3551C79.4539 10.6236 79.194 10.9943 79.0193 11.4673C78.8445 11.9403 78.7572 12.4815 78.7572 13.0909C78.7572 13.7045 78.8445 14.2521 79.0193 14.7337C79.1982 15.2109 79.4603 15.5881 79.8055 15.8651C80.1549 16.1378 80.5832 16.2741 81.0903 16.2741ZM99.8206 8.50781C99.7609 7.94957 99.5095 7.51491 99.0663 7.20384C98.6274 6.89276 98.0564 6.73722 97.3532 6.73722C96.8589 6.73722 96.4349 6.81179 96.0812 6.96094C95.7275 7.11008 95.4569 7.3125 95.2694 7.56818C95.0819 7.82386 94.9861 8.11577 94.9818 8.44389C94.9818 8.71662 95.0436 8.95312 95.1672 9.15341C95.295 9.35369 95.4676 9.52415 95.6849 9.66477C95.9023 9.80114 96.143 9.91619 96.4072 10.0099C96.6714 10.1037 96.9378 10.1825 97.2062 10.2464L98.4335 10.5533C98.9278 10.6683 99.403 10.8239 99.8589 11.0199C100.319 11.2159 100.73 11.4631 101.093 11.7614C101.459 12.0597 101.749 12.4197 101.962 12.8416C102.175 13.2635 102.282 13.7578 102.282 14.3246C102.282 15.0916 102.085 15.767 101.693 16.3509C101.301 16.9304 100.735 17.3842 99.9932 17.7124C99.2559 18.0362 98.3632 18.1982 97.3149 18.1982C96.2964 18.1982 95.4122 18.0405 94.6622 17.7251C93.9165 17.4098 93.3327 16.9496 92.9108 16.3445C92.4932 15.7393 92.2673 15.0021 92.2332 14.1328H94.5663C94.6004 14.5888 94.741 14.968 94.9882 15.2706C95.2354 15.5732 95.5571 15.799 95.9534 15.9482C96.354 16.0973 96.8014 16.1719 97.2957 16.1719C97.8113 16.1719 98.2631 16.0952 98.6508 15.9418C99.0429 15.7841 99.3497 15.5668 99.5713 15.2898C99.7929 15.0085 99.9058 14.6804 99.9101 14.3054C99.9058 13.9645 99.8057 13.6832 99.6096 13.4616C99.4136 13.2358 99.1388 13.0483 98.7851 12.8991C98.4356 12.7457 98.0265 12.6094 97.5578 12.4901L96.0684 12.1065C94.9903 11.8295 94.1381 11.4098 93.5116 10.8473C92.8895 10.2805 92.5784 9.52841 92.5784 8.59091C92.5784 7.8196 92.7872 7.14418 93.2048 6.56463C93.6267 5.98509 94.1998 5.53551 94.9243 5.21591C95.6487 4.89204 96.469 4.73011 97.3852 4.73011C98.3142 4.73011 99.1281 4.89204 99.827 5.21591C100.53 5.53551 101.082 5.98082 101.483 6.55185C101.883 7.11861 102.09 7.7706 102.103 8.50781H99.8206ZM108.64 18.1918C107.656 18.1918 106.805 17.9872 106.09 17.5781C105.378 17.1648 104.83 16.581 104.447 15.8267C104.063 15.0682 103.872 14.1754 103.872 13.1484C103.872 12.1385 104.063 11.2521 104.447 10.4893C104.835 9.7223 105.376 9.12571 106.07 8.69957C106.765 8.26918 107.581 8.05398 108.519 8.05398C109.124 8.05398 109.695 8.15199 110.232 8.34801C110.773 8.53977 111.25 8.83807 111.663 9.2429C112.081 9.64773 112.409 10.1634 112.648 10.7898C112.886 11.4119 113.006 12.1534 113.006 13.0142V13.7237H104.958V12.1641H110.788C110.783 11.7209 110.688 11.3267 110.5 10.9815C110.313 10.6321 110.051 10.3572 109.714 10.157C109.381 9.95668 108.994 9.85653 108.551 9.85653C108.078 9.85653 107.662 9.97159 107.304 10.2017C106.946 10.4276 106.667 10.7259 106.467 11.0966C106.271 11.4631 106.171 11.8658 106.166 12.3047V13.6662C106.166 14.2372 106.271 14.7273 106.479 15.1364C106.688 15.5412 106.98 15.8523 107.355 16.0696C107.73 16.2827 108.169 16.3892 108.672 16.3892C109.009 16.3892 109.313 16.3423 109.586 16.2486C109.859 16.1506 110.095 16.0078 110.296 15.8203C110.496 15.6328 110.647 15.4006 110.749 15.1236L112.91 15.3665C112.774 15.9375 112.514 16.4361 112.13 16.8622C111.751 17.2841 111.265 17.6122 110.673 17.8466C110.08 18.0767 109.403 18.1918 108.64 18.1918ZM114.963 18V8.18182H117.207V9.81818H117.309C117.488 9.25142 117.795 8.81463 118.23 8.50781C118.669 8.19673 119.169 8.04119 119.732 8.04119C119.86 8.04119 120.002 8.04758 120.16 8.06037C120.322 8.06889 120.456 8.08381 120.563 8.10511V10.2337C120.465 10.1996 120.309 10.1697 120.096 10.1442C119.887 10.1143 119.685 10.0994 119.489 10.0994C119.067 10.0994 118.688 10.1911 118.351 10.3743C118.019 10.5533 117.757 10.8026 117.565 11.1222C117.373 11.4418 117.277 11.8104 117.277 12.228V18H114.963ZM131.169 8.18182L127.672 18H125.116L121.619 8.18182H124.086L126.343 15.4751H126.445L128.708 8.18182H131.169ZM132.77 18V8.18182H135.084V18H132.77ZM133.933 6.78835C133.567 6.78835 133.252 6.6669 132.987 6.42401C132.723 6.17685 132.591 5.88068 132.591 5.53551C132.591 5.18608 132.723 4.88991 132.987 4.64702C133.252 4.39986 133.567 4.27628 133.933 4.27628C134.304 4.27628 134.619 4.39986 134.879 4.64702C135.144 4.88991 135.276 5.18608 135.276 5.53551C135.276 5.88068 135.144 6.17685 134.879 6.42401C134.619 6.6669 134.304 6.78835 133.933 6.78835ZM141.746 18.1918C140.766 18.1918 139.924 17.9766 139.221 17.5462C138.522 17.1158 137.983 16.5213 137.604 15.7628C137.229 15 137.041 14.1222 137.041 13.1293C137.041 12.1321 137.233 11.2521 137.617 10.4893C138 9.7223 138.541 9.12571 139.24 8.69957C139.943 8.26918 140.774 8.05398 141.733 8.05398C142.53 8.05398 143.235 8.20099 143.849 8.49503C144.467 8.7848 144.959 9.19602 145.326 9.72869C145.692 10.2571 145.901 10.875 145.952 11.5824H143.74C143.651 11.1094 143.438 10.7152 143.101 10.3999C142.769 10.0803 142.323 9.92045 141.765 9.92045C141.292 9.92045 140.877 10.0483 140.519 10.304C140.161 10.5554 139.882 10.9176 139.681 11.3906C139.485 11.8636 139.387 12.4304 139.387 13.0909C139.387 13.7599 139.485 14.3352 139.681 14.8168C139.877 15.294 140.152 15.6626 140.506 15.9226C140.864 16.1783 141.284 16.3061 141.765 16.3061C142.106 16.3061 142.411 16.2422 142.679 16.1143C142.952 15.9822 143.18 15.7926 143.363 15.5455C143.546 15.2983 143.672 14.9979 143.74 14.6442H145.952C145.897 15.3388 145.692 15.9545 145.338 16.4915C144.985 17.0241 144.503 17.4418 143.894 17.7443C143.284 18.0426 142.568 18.1918 141.746 18.1918ZM152.199 18.1918C151.214 18.1918 150.364 17.9872 149.648 17.5781C148.937 17.1648 148.389 16.581 148.005 15.8267C147.622 15.0682 147.43 14.1754 147.43 13.1484C147.43 12.1385 147.622 11.2521 148.005 10.4893C148.393 9.7223 148.934 9.12571 149.629 8.69957C150.324 8.26918 151.14 8.05398 152.077 8.05398C152.682 8.05398 153.253 8.15199 153.79 8.34801C154.331 8.53977 154.809 8.83807 155.222 9.2429C155.64 9.64773 155.968 10.1634 156.206 10.7898C156.445 11.4119 156.564 12.1534 156.564 13.0142V13.7237H148.517V12.1641H154.346C154.342 11.7209 154.246 11.3267 154.059 10.9815C153.871 10.6321 153.609 10.3572 153.272 10.157C152.94 9.95668 152.552 9.85653 152.109 9.85653C151.636 9.85653 151.221 9.97159 150.863 10.2017C150.505 10.4276 150.226 10.7259 150.025 11.0966C149.829 11.4631 149.729 11.8658 149.725 12.3047V13.6662C149.725 14.2372 149.829 14.7273 150.038 15.1364C150.247 15.5412 150.539 15.8523 150.914 16.0696C151.289 16.2827 151.728 16.3892 152.231 16.3892C152.567 16.3892 152.872 16.3423 153.145 16.2486C153.417 16.1506 153.654 16.0078 153.854 15.8203C154.054 15.6328 154.206 15.4006 154.308 15.1236L156.468 15.3665C156.332 15.9375 156.072 16.4361 155.689 16.8622C155.309 17.2841 154.824 17.6122 154.231 17.8466C153.639 18.0767 152.961 18.1918 152.199 18.1918ZM163.089 18V4.90909H165.46V16.0121H171.226V18H163.089ZM173.182 18V8.18182H175.496V18H173.182ZM174.345 6.78835C173.979 6.78835 173.664 6.6669 173.399 6.42401C173.135 6.17685 173.003 5.88068 173.003 5.53551C173.003 5.18608 173.135 4.88991 173.399 4.64702C173.664 4.39986 173.979 4.27628 174.345 4.27628C174.716 4.27628 175.032 4.39986 175.291 4.64702C175.556 4.88991 175.688 5.18608 175.688 5.53551C175.688 5.88068 175.556 6.17685 175.291 6.42401C175.032 6.6669 174.716 6.78835 174.345 6.78835ZM185.635 10.777L183.526 11.0071C183.466 10.794 183.362 10.5938 183.213 10.4062C183.068 10.2188 182.872 10.0675 182.625 9.95241C182.378 9.83736 182.075 9.77983 181.717 9.77983C181.236 9.77983 180.831 9.88423 180.503 10.093C180.179 10.3018 180.019 10.5724 180.023 10.9048C180.019 11.1903 180.123 11.4226 180.336 11.6016C180.554 11.7805 180.912 11.9276 181.41 12.0426L183.085 12.4006C184.014 12.6009 184.704 12.9183 185.156 13.353C185.612 13.7876 185.842 14.3565 185.846 15.0597C185.842 15.6776 185.661 16.223 185.303 16.696C184.949 17.1648 184.457 17.5312 183.826 17.7955C183.196 18.0597 182.471 18.1918 181.653 18.1918C180.451 18.1918 179.484 17.9403 178.751 17.4375C178.018 16.9304 177.581 16.2251 177.441 15.3217L179.697 15.1044C179.799 15.5476 180.017 15.8821 180.349 16.108C180.682 16.3338 181.114 16.4467 181.647 16.4467C182.196 16.4467 182.638 16.3338 182.97 16.108C183.307 15.8821 183.475 15.603 183.475 15.2706C183.475 14.9893 183.366 14.7571 183.149 14.5739C182.936 14.3906 182.603 14.25 182.152 14.152L180.477 13.8004C179.535 13.6044 178.839 13.2741 178.387 12.8097C177.935 12.3409 177.711 11.7486 177.716 11.0327C177.711 10.4276 177.875 9.90341 178.208 9.46023C178.544 9.01278 179.011 8.66761 179.608 8.42472C180.209 8.17756 180.901 8.05398 181.685 8.05398C182.836 8.05398 183.741 8.29901 184.402 8.78906C185.066 9.27912 185.478 9.94176 185.635 10.777ZM192.657 8.18182V9.97159H187.013V8.18182H192.657ZM188.406 5.82955H190.72V15.0469C190.72 15.358 190.767 15.5966 190.861 15.7628C190.959 15.9247 191.087 16.0355 191.244 16.0952C191.402 16.1548 191.577 16.1847 191.769 16.1847C191.913 16.1847 192.046 16.174 192.165 16.1527C192.288 16.1314 192.382 16.1122 192.446 16.0952L192.836 17.9041C192.712 17.9467 192.536 17.9936 192.305 18.0447C192.08 18.0959 191.803 18.1257 191.475 18.1342C190.895 18.1513 190.373 18.0639 189.908 17.8722C189.444 17.6761 189.075 17.3736 188.803 16.9645C188.534 16.5554 188.402 16.044 188.406 15.4304V5.82955ZM194.592 18V8.18182H196.906V18H194.592ZM195.756 6.78835C195.389 6.78835 195.074 6.6669 194.81 6.42401C194.545 6.17685 194.413 5.88068 194.413 5.53551C194.413 5.18608 194.545 4.88991 194.81 4.64702C195.074 4.39986 195.389 4.27628 195.756 4.27628C196.126 4.27628 196.442 4.39986 196.702 4.64702C196.966 4.88991 197.098 5.18608 197.098 5.53551C197.098 5.88068 196.966 6.17685 196.702 6.42401C196.442 6.6669 196.126 6.78835 195.756 6.78835ZM201.6 12.2472V18H199.286V8.18182H201.497V9.85014H201.612C201.838 9.30043 202.198 8.86364 202.693 8.53977C203.191 8.21591 203.807 8.05398 204.54 8.05398C205.217 8.05398 205.808 8.19886 206.31 8.48864C206.818 8.77841 207.21 9.19815 207.487 9.74787C207.768 10.2976 207.906 10.9645 207.902 11.7486V18H205.588V12.1065C205.588 11.4503 205.418 10.9368 205.077 10.5661C204.74 10.1953 204.274 10.0099 203.677 10.0099C203.272 10.0099 202.912 10.0994 202.597 10.2784C202.286 10.4531 202.041 10.7067 201.862 11.0391C201.687 11.3714 201.6 11.7741 201.6 12.2472ZM214.524 21.8864C213.693 21.8864 212.979 21.7734 212.383 21.5476C211.786 21.326 211.307 21.0277 210.945 20.6527C210.582 20.2777 210.331 19.8622 210.19 19.4062L212.274 18.9013C212.368 19.093 212.504 19.2827 212.683 19.4702C212.862 19.6619 213.103 19.8196 213.406 19.9432C213.712 20.071 214.098 20.1349 214.563 20.1349C215.219 20.1349 215.762 19.9751 216.193 19.6555C216.623 19.3402 216.838 18.8203 216.838 18.0959V16.2358H216.723C216.604 16.4744 216.429 16.7195 216.199 16.9709C215.973 17.2223 215.673 17.4332 215.298 17.6037C214.927 17.7741 214.46 17.8594 213.898 17.8594C213.144 17.8594 212.46 17.6825 211.846 17.3288C211.237 16.9709 210.751 16.4382 210.389 15.7308C210.031 15.0192 209.852 14.1286 209.852 13.0589C209.852 11.9808 210.031 11.071 210.389 10.3295C210.751 9.58381 211.239 9.01918 211.852 8.63565C212.466 8.24787 213.15 8.05398 213.904 8.05398C214.479 8.05398 214.953 8.15199 215.323 8.34801C215.698 8.53977 215.997 8.77202 216.218 9.04474C216.44 9.31321 216.608 9.56676 216.723 9.8054H216.851V8.18182H219.133V18.1598C219.133 18.9993 218.933 19.6939 218.532 20.2436C218.131 20.7933 217.584 21.2045 216.889 21.4773C216.195 21.75 215.406 21.8864 214.524 21.8864ZM214.543 16.044C215.033 16.044 215.451 15.9247 215.796 15.6861C216.141 15.4474 216.403 15.1044 216.582 14.657C216.761 14.2095 216.851 13.6726 216.851 13.0462C216.851 12.4283 216.761 11.8871 216.582 11.4226C216.408 10.9581 216.148 10.598 215.803 10.3423C215.462 10.0824 215.042 9.95241 214.543 9.95241C214.028 9.95241 213.597 10.0866 213.252 10.3551C212.907 10.6236 212.647 10.9922 212.472 11.4609C212.298 11.9254 212.21 12.4538 212.21 13.0462C212.21 13.647 212.298 14.1733 212.472 14.625C212.651 15.0724 212.913 15.4219 213.259 15.6733C213.608 15.9205 214.036 16.044 214.543 16.044ZM229.264 10.777L227.155 11.0071C227.095 10.794 226.991 10.5938 226.842 10.4062C226.697 10.2188 226.501 10.0675 226.254 9.95241C226.006 9.83736 225.704 9.77983 225.346 9.77983C224.864 9.77983 224.46 9.88423 224.131 10.093C223.808 10.3018 223.648 10.5724 223.652 10.9048C223.648 11.1903 223.752 11.4226 223.965 11.6016C224.183 11.7805 224.541 11.9276 225.039 12.0426L226.714 12.4006C227.643 12.6009 228.333 12.9183 228.785 13.353C229.241 13.7876 229.471 14.3565 229.475 15.0597C229.471 15.6776 229.29 16.223 228.932 16.696C228.578 17.1648 228.086 17.5312 227.455 17.7955C226.825 18.0597 226.1 18.1918 225.282 18.1918C224.08 18.1918 223.113 17.9403 222.38 17.4375C221.647 16.9304 221.21 16.2251 221.07 15.3217L223.326 15.1044C223.428 15.5476 223.646 15.8821 223.978 16.108C224.31 16.3338 224.743 16.4467 225.276 16.4467C225.825 16.4467 226.266 16.3338 226.599 16.108C226.935 15.8821 227.104 15.603 227.104 15.2706C227.104 14.9893 226.995 14.7571 226.778 14.5739C226.565 14.3906 226.232 14.25 225.781 14.152L224.106 13.8004C223.164 13.6044 222.467 13.2741 222.016 12.8097C221.564 12.3409 221.34 11.7486 221.345 11.0327C221.34 10.4276 221.504 9.90341 221.837 9.46023C222.173 9.01278 222.64 8.66761 223.237 8.42472C223.837 8.17756 224.53 8.05398 225.314 8.05398C226.465 8.05398 227.37 8.29901 228.031 8.78906C228.695 9.27912 229.107 9.94176 229.264 10.777Z" fill="#2F2F2F"/>
</svg>
