<svg width="86" height="196" viewBox="0 0 86 196" fill="none" xmlns="http://www.w3.org/2000/svg">
<path d="M98.5 196C85.1615 196 72.4001 193.416 60.2158 188.248C48.0316 183.08 37.5467 176.126 28.7612 167.385C19.9757 158.644 12.9858 148.212 7.7915 136.09C2.59717 123.967 0 111.271 0 98C0 84.7292 2.59717 72.0326 7.7915 59.9102C12.9858 47.7878 19.9757 37.3561 28.7612 28.6152C37.5467 19.8743 48.0316 12.9199 60.2158 7.75195C72.4001 2.58398 85.1615 0 98.5 0C111.839 0 124.6 2.58398 136.784 7.75195C148.968 12.9199 159.453 19.8743 168.239 28.6152C177.024 37.3561 184.014 47.7878 189.208 59.9102C194.403 72.0326 197 84.7292 197 98C197 111.271 194.403 123.967 189.208 136.09C184.014 148.212 177.024 158.644 168.239 167.385C159.453 176.126 148.968 183.08 136.784 188.248C124.6 193.416 111.839 196 98.5 196ZM56.3682 56.082L47.1338 48.043C45.723 48.043 44.0557 48.2025 42.1318 48.5215C40.208 48.8405 38.4766 49 36.9375 49C36.8092 48.8724 35.6549 46.5117 33.4746 41.918C19.3665 58.1237 12.3125 76.8177 12.3125 98C12.3125 98.3828 12.3446 98.8932 12.4087 99.5312C12.4728 100.169 12.5049 100.616 12.5049 100.871C13.2744 101.637 15.1662 103.072 18.1802 105.178C21.1942 107.283 23.3424 108.974 24.625 110.25H36.9375C37.3223 109.995 37.675 109.803 37.9956 109.676C38.3162 109.548 38.6689 109.421 39.0537 109.293C37.7712 107.889 35.8794 105.816 33.3784 103.072C30.8774 100.329 28.9857 98.319 27.7031 97.043C28.2161 94.1081 28.9215 89.6738 29.8193 83.7402C30.7171 77.8066 31.3584 73.3724 31.7432 70.4375C42.7731 65.8438 50.9814 62.4622 56.3682 60.293V56.082ZM95.0371 24.8828C93.2415 24.1172 91.5742 23.4154 90.0352 22.7773C89.6504 21.7565 89.3939 20.9909 89.2656 20.4805C88.4961 22.9049 87.2777 26.5417 85.6104 31.3906C86.1234 31.5182 86.8608 31.6458 87.8228 31.7734C88.7847 31.901 89.5221 32.0286 90.0352 32.1562H95.0371V24.8828ZM94.2676 115.035C93.6263 115.673 93.1774 116.184 92.9209 116.566C91.3818 119.246 89.2015 123.329 86.3799 128.816C83.5583 134.303 81.4421 138.387 80.0312 141.066C81.8268 143.746 84.5522 147.829 88.2075 153.316C91.8628 158.803 94.5882 162.887 96.3838 165.566C113.057 166.587 125.69 167.353 134.283 167.863C134.54 171.053 135.566 173.223 137.361 174.371C149.033 168.501 158.908 160.367 166.988 149.967C175.068 139.567 180.391 127.923 182.956 115.035C180.519 114.525 177.858 113.823 174.972 112.93C172.086 112.036 170.002 111.43 168.72 111.111C167.437 110.792 164.904 110.473 161.121 110.154C157.337 109.835 153.393 110.059 149.289 110.824C147.75 110.952 146.756 109.963 146.307 107.857C145.858 105.752 145.634 103.583 145.634 101.35C145.634 99.1165 145.377 97.9362 144.864 97.8086C142.043 97.2982 136.335 97.7767 127.742 99.2441C119.149 100.712 113.442 101.19 110.62 100.68C108.953 102.211 103.502 106.996 94.2676 115.035ZM105.618 19.1406C105.233 21.6927 104.56 25.5208 103.598 30.625C102.636 35.7292 101.899 39.6211 101.386 42.3008C102.027 42.1732 103.085 42.0137 104.56 41.8223C106.035 41.6309 107.093 41.5352 107.734 41.5352C107.35 41.2799 106.901 41.0247 106.388 40.7695C108.312 40.1315 109.722 39.6211 110.62 39.2383C108.44 30.306 106.772 23.6068 105.618 19.1406ZM127.935 17.418C127.678 18.8216 127.55 20.7995 127.55 23.3516C127.55 25.9036 126.909 29.2852 125.626 33.4961C125.754 33.7513 126.011 34.0065 126.396 34.2617C128.961 34.0065 133.257 33.5599 139.285 32.9219C139.285 30.2422 140.632 27.5625 143.325 24.8828C138.451 21.9479 133.321 19.4596 127.935 17.418ZM151.982 30.8164C151.726 31.3268 151.277 32.0286 150.636 32.9219C153.073 33.3047 154.676 33.6237 155.445 33.8789C153.906 32.4753 152.752 31.4544 151.982 30.8164ZM157.177 35.4102C156.792 36.1758 156.183 37.3242 155.349 38.8555C154.515 40.3867 153.906 41.5352 153.521 42.3008C149.802 42.4284 144.8 42.6198 138.516 42.875L137.746 36.3672C137.49 36.4948 137.041 36.6543 136.399 36.8457C135.758 37.0371 135.245 37.1328 134.86 37.1328V46.5117C132.167 46.7669 128.031 47.1497 122.452 47.6602C116.873 48.1706 112.736 48.5534 110.043 48.8086C109.145 50.0846 108.183 51.4883 107.157 53.0195C110.62 60.4206 113.249 65.9714 115.045 69.6719C112.48 70.3099 107.221 71.7135 99.2695 73.8828V80.3906C99.2695 80.6458 99.3657 81.0286 99.5581 81.5391C99.7505 82.0495 99.9108 82.4323 100.039 82.6875C102.219 83.7083 105.618 85.2396 110.235 87.2812C114.853 89.3229 118.315 90.918 120.624 92.0664L124.856 86.8984C124.728 85.6224 124.408 83.6126 123.895 80.8691C123.382 78.1256 122.997 76.0521 122.74 74.6484C123.125 74.3932 123.734 74.0423 124.568 73.5957C125.402 73.1491 126.011 72.7982 126.396 72.543C129.858 71.5221 132.488 70.8203 134.283 70.4375C135.951 73.1172 138.291 76.9453 141.305 81.9219C144.319 86.8984 146.211 90.0247 146.98 91.3008C148.135 90.2799 149.738 88.7168 151.79 86.6113C153.842 84.5059 155.381 82.9427 156.407 81.9219C149.481 77.0729 144.928 73.9466 142.748 72.543C142.876 71.5221 143.133 70.0547 143.518 68.1406H150.636C157.818 74.2656 165.193 80.5182 172.76 86.8984C172.888 86.8984 173.016 86.8027 173.145 86.6113C173.273 86.4199 173.401 86.3242 173.529 86.3242C173.016 85.3034 171.349 82.1771 168.527 76.9453C168.527 76.8177 168.72 76.5625 169.104 76.1797L169.874 75.4141H177.762C177.89 75.2865 178.98 74.7122 181.032 73.6914C176.672 58.8893 168.72 46.1289 157.177 35.4102Z" fill="url(#paint0_linear_960_2368)" fill-opacity="0.5"/>
<defs>
<linearGradient id="paint0_linear_960_2368" x1="98.5" y1="0" x2="98.5" y2="196" gradientUnits="userSpaceOnUse">
<stop stop-color="#68FDF3"/>
<stop offset="0.453125" stop-color="#BCF4F1"/>
<stop offset="1" stop-color="#00D4FF"/>
</linearGradient>
</defs>
</svg>
