<svg width="99" height="196" viewBox="0 0 99 196" fill="none" xmlns="http://www.w3.org/2000/svg">
<path d="M0.5 196C-12.8385 196 -25.5999 193.416 -37.7842 188.248C-49.9684 183.08 -60.4533 176.126 -69.2388 167.385C-78.0243 158.644 -85.0142 148.212 -90.2085 136.09C-95.4028 123.967 -98 111.271 -98 98C-98 84.7292 -95.4028 72.0326 -90.2085 59.9102C-85.0142 47.7878 -78.0243 37.3561 -69.2388 28.6152C-60.4533 19.8743 -49.9684 12.9199 -37.7842 7.75195C-25.5999 2.58398 -12.8385 0 0.5 0C13.8385 0 26.5999 2.58398 38.7842 7.75195C50.9684 12.9199 61.4533 19.8743 70.2388 28.6152C79.0242 37.3561 86.0142 47.7878 91.2085 59.9102C96.4028 72.0326 99 84.7292 99 98C99 111.271 96.4028 123.967 91.2085 136.09C86.0142 148.212 79.0242 158.644 70.2388 167.385C61.4533 176.126 50.9684 183.08 38.7842 188.248C26.5999 193.416 13.8385 196 0.5 196ZM-41.6318 56.082L-50.8662 48.043C-52.277 48.043 -53.9443 48.2025 -55.8682 48.5215C-57.792 48.8405 -59.5234 49 -61.0625 49C-61.1908 48.8724 -62.3451 46.5117 -64.5254 41.918C-78.6335 58.1237 -85.6875 76.8177 -85.6875 98C-85.6875 98.3828 -85.6554 98.8932 -85.5913 99.5312C-85.5272 100.169 -85.4951 100.616 -85.4951 100.871C-84.7256 101.637 -82.8338 103.072 -79.8198 105.178C-76.8058 107.283 -74.6576 108.974 -73.375 110.25H-61.0625C-60.6777 109.995 -60.325 109.803 -60.0044 109.676C-59.6838 109.548 -59.3311 109.421 -58.9463 109.293C-60.2288 107.889 -62.1206 105.816 -64.6216 103.072C-67.1226 100.329 -69.0143 98.319 -70.2969 97.043C-69.7839 94.1081 -69.0785 89.6738 -68.1807 83.7402C-67.2829 77.8066 -66.6416 73.3724 -66.2568 70.4375C-55.2269 65.8438 -47.0186 62.4622 -41.6318 60.293V56.082ZM-2.96289 24.8828C-4.75846 24.1172 -6.42578 23.4154 -7.96484 22.7773C-8.34961 21.7565 -8.60612 20.9909 -8.73438 20.4805C-9.50391 22.9049 -10.7223 26.5417 -12.3896 31.3906C-11.8766 31.5182 -11.1392 31.6458 -10.1772 31.7734C-9.21533 31.901 -8.47787 32.0286 -7.96484 32.1562H-2.96289V24.8828ZM-3.73242 115.035C-4.3737 115.673 -4.82259 116.184 -5.0791 116.566C-6.61816 119.246 -8.7985 123.329 -11.6201 128.816C-14.4417 134.303 -16.5579 138.387 -17.9688 141.066C-16.1732 143.746 -13.4478 147.829 -9.79248 153.316C-6.13721 158.803 -3.41178 162.887 -1.61621 165.566C15.057 166.587 27.6901 167.353 36.2832 167.863C36.5397 171.053 37.5658 173.223 39.3613 174.371C51.0325 168.501 60.9082 160.367 68.9883 149.967C77.0684 139.567 82.3909 127.923 84.9561 115.035C82.5192 114.525 79.8579 113.823 76.9722 112.93C74.0864 112.036 72.0023 111.43 70.7197 111.111C69.4372 110.792 66.9041 110.473 63.1206 110.154C59.3371 109.835 55.3932 110.059 51.2891 110.824C49.75 110.952 48.756 109.963 48.3071 107.857C47.8582 105.752 47.6338 103.583 47.6338 101.35C47.6338 99.1165 47.3773 97.9362 46.8643 97.8086C44.0426 97.2982 38.3353 97.7767 29.7422 99.2441C21.1491 100.712 15.4417 101.19 12.6201 100.68C10.9528 102.211 5.50195 106.996 -3.73242 115.035ZM7.61816 19.1406C7.2334 21.6927 6.56006 25.5208 5.59814 30.625C4.63623 35.7292 3.89877 39.6211 3.38574 42.3008C4.02702 42.1732 5.08512 42.0137 6.56006 41.8223C8.035 41.6309 9.0931 41.5352 9.73438 41.5352C9.34961 41.2799 8.90072 41.0247 8.3877 40.7695C10.3115 40.1315 11.7223 39.6211 12.6201 39.2383C10.4398 30.306 8.77246 23.6068 7.61816 19.1406ZM29.9346 17.418C29.6781 18.8216 29.5498 20.7995 29.5498 23.3516C29.5498 25.9036 28.9085 29.2852 27.626 33.4961C27.7542 33.7513 28.0107 34.0065 28.3955 34.2617C30.9606 34.0065 35.2572 33.5599 41.2852 32.9219C41.2852 30.2422 42.6318 27.5625 45.3252 24.8828C40.4515 21.9479 35.3213 19.4596 29.9346 17.418ZM53.9824 30.8164C53.7259 31.3268 53.277 32.0286 52.6357 32.9219C55.0726 33.3047 56.6758 33.6237 57.4453 33.8789C55.9062 32.4753 54.752 31.4544 53.9824 30.8164ZM59.1768 35.4102C58.792 36.1758 58.1828 37.3242 57.3491 38.8555C56.5155 40.3867 55.9062 41.5352 55.5215 42.3008C51.8021 42.4284 46.8001 42.6198 40.5156 42.875L39.7461 36.3672C39.4896 36.4948 39.0407 36.6543 38.3994 36.8457C37.7581 37.0371 37.2451 37.1328 36.8604 37.1328V46.5117C34.167 46.7669 30.0308 47.1497 24.4517 47.6602C18.8726 48.1706 14.7363 48.5534 12.043 48.8086C11.1452 50.0846 10.1833 51.4883 9.15723 53.0195C12.6201 60.4206 15.2494 65.9714 17.0449 69.6719C14.4798 70.3099 9.22135 71.7135 1.26953 73.8828V80.3906C1.26953 80.6458 1.36572 81.0286 1.55811 81.5391C1.75049 82.0495 1.9108 82.4323 2.03906 82.6875C4.2194 83.7083 7.61816 85.2396 12.2354 87.2812C16.8525 89.3229 20.3154 90.918 22.624 92.0664L26.8564 86.8984C26.7282 85.6224 26.4076 83.6126 25.8945 80.8691C25.3815 78.1256 24.9967 76.0521 24.7402 74.6484C25.125 74.3932 25.7342 74.0423 26.5679 73.5957C27.4015 73.1491 28.0107 72.7982 28.3955 72.543C31.8584 71.5221 34.4876 70.8203 36.2832 70.4375C37.9505 73.1172 40.2912 76.9453 43.3052 81.9219C46.3192 86.8984 48.2109 90.0247 48.9805 91.3008C50.1348 90.2799 51.738 88.7168 53.79 86.6113C55.8421 84.5059 57.3812 82.9427 58.4072 81.9219C51.4814 77.0729 46.9284 73.9466 44.748 72.543C44.8763 71.5221 45.1328 70.0547 45.5176 68.1406H52.6357C59.818 74.2656 67.1927 80.5182 74.7598 86.8984C74.888 86.8984 75.0163 86.8027 75.1445 86.6113C75.2728 86.4199 75.401 86.3242 75.5293 86.3242C75.0163 85.3034 73.349 82.1771 70.5273 76.9453C70.5273 76.8177 70.7197 76.5625 71.1045 76.1797L71.874 75.4141H79.7617C79.89 75.2865 80.9801 74.7122 83.0322 73.6914C78.6716 58.8893 70.7197 46.1289 59.1768 35.4102Z" fill="url(#paint0_linear_960_2400)" fill-opacity="0.5"/>
<defs>
<linearGradient id="paint0_linear_960_2400" x1="0.5" y1="0" x2="0.5" y2="196" gradientUnits="userSpaceOnUse">
<stop stop-color="#68FDF3"/>
<stop offset="0.453125" stop-color="#BCF4F1"/>
<stop offset="1" stop-color="#00D4FF"/>
</linearGradient>
</defs>
</svg>
