<svg width="80" height="219" viewBox="0 0 80 219" fill="none" xmlns="http://www.w3.org/2000/svg">
<path d="M-18.5 218.281C-31.8385 218.281 -44.5999 215.404 -56.7842 209.649C-68.9684 203.895 -79.4533 196.151 -88.2388 186.418C-97.0243 176.685 -104.014 165.07 -109.208 151.572C-114.403 138.074 -117 123.936 -117 109.159C-117 94.3822 -114.403 80.2446 -109.208 66.7465C-104.014 53.2483 -97.0243 41.6328 -88.2388 31.8999C-79.4533 22.167 -68.9684 14.4233 -56.7842 8.66883C-44.5999 2.91435 -31.8385 0.0371094 -18.5 0.0371094C-5.16146 0.0371094 7.59994 2.91435 19.7842 8.66883C31.9684 14.4233 42.4533 22.167 51.2388 31.8999C60.0242 41.6328 67.0142 53.2483 72.2085 66.7465C77.4028 80.2446 80 94.3822 80 109.159C80 123.936 77.4028 138.074 72.2085 151.572C67.0142 165.07 60.0242 176.685 51.2388 186.418C42.4533 196.151 31.9684 203.895 19.7842 209.649C7.59994 215.404 -5.16146 218.281 -18.5 218.281ZM-60.6318 62.4839L-69.8662 53.5325C-71.277 53.5325 -72.9443 53.7101 -74.8682 54.0653C-76.792 54.4205 -78.5234 54.5981 -80.0625 54.5981C-80.1908 54.456 -81.3451 51.8274 -83.5254 46.7123C-97.6335 64.7573 -104.688 85.5729 -104.688 109.159C-104.688 109.585 -104.655 110.154 -104.591 110.864C-104.527 111.575 -104.495 112.072 -104.495 112.356C-103.726 113.209 -101.834 114.807 -98.8198 117.151C-95.8058 119.496 -93.6576 121.379 -92.375 122.799H-80.0625C-79.6777 122.515 -79.325 122.302 -79.0044 122.16C-78.6838 122.018 -78.3311 121.876 -77.9463 121.734C-79.2288 120.171 -81.1206 117.862 -83.6216 114.807C-86.1226 111.752 -88.0143 109.514 -89.2969 108.093C-88.7839 104.826 -88.0785 99.888 -87.1807 93.281C-86.2829 86.674 -85.6416 81.7365 -85.2568 78.4686C-74.2269 73.3535 -66.0186 69.5882 -60.6318 67.1727V62.4839ZM-21.9629 27.7439C-23.7585 26.8914 -25.4258 26.1099 -26.9648 25.3995C-27.3496 24.2628 -27.6061 23.4102 -27.7344 22.8419C-28.5039 25.5415 -29.7223 29.591 -31.3896 34.9903C-30.8766 35.1323 -30.1392 35.2744 -29.1772 35.4165C-28.2153 35.5586 -27.4779 35.7007 -26.9648 35.8428H-21.9629V27.7439ZM-22.7324 128.128C-23.3737 128.838 -23.8226 129.406 -24.0791 129.833C-25.6182 132.816 -27.7985 137.363 -30.6201 143.473C-33.4417 149.583 -35.5579 154.129 -36.9688 157.113C-35.1732 160.097 -32.4478 164.644 -28.7925 170.753C-25.1372 176.863 -22.4118 181.41 -20.6162 184.394C-3.94303 185.53 8.6901 186.383 17.2832 186.951C17.5397 190.503 18.5658 192.919 20.3613 194.198C32.0325 187.662 41.9082 178.604 49.9883 167.024C58.0684 155.444 63.3909 142.478 65.9561 128.128C63.5192 127.559 60.8579 126.778 57.9722 125.783C55.0864 124.789 53.0023 124.114 51.7197 123.758C50.4372 123.403 47.9041 123.048 44.1206 122.693C40.3371 122.338 36.3932 122.586 32.2891 123.439C30.75 123.581 29.756 122.48 29.3071 120.135C28.8582 117.791 28.6338 115.375 28.6338 112.889C28.6338 110.402 28.3773 109.088 27.8643 108.946C25.0426 108.378 19.3353 108.91 10.7422 110.544C2.14909 112.178 -3.55827 112.711 -6.37988 112.143C-8.0472 113.848 -13.498 119.176 -22.7324 128.128ZM-11.3818 21.35C-11.7666 24.1917 -12.4399 28.4543 -13.4019 34.1377C-14.3638 39.8212 -15.1012 44.1548 -15.6143 47.1386C-14.973 46.9965 -13.9149 46.8189 -12.4399 46.6058C-10.965 46.3927 -9.9069 46.2861 -9.26562 46.2861C-9.65039 46.0019 -10.0993 45.7177 -10.6123 45.4336C-8.68848 44.7231 -7.27767 44.1548 -6.37988 43.7285C-8.56022 33.7825 -10.2275 26.323 -11.3818 21.35ZM10.9346 19.4318C10.6781 20.9948 10.5498 23.1971 10.5498 26.0388C10.5498 28.8806 9.90853 32.6458 8.62598 37.3347C8.75423 37.6188 9.01074 37.903 9.39551 38.1872C11.9606 37.903 16.2572 37.4057 22.2852 36.6953C22.2852 33.7115 23.6318 30.7277 26.3252 27.7439C21.4515 24.4759 16.3213 21.7052 10.9346 19.4318ZM34.9824 34.3509C34.7259 34.9192 34.277 35.7007 33.6357 36.6953C36.0726 37.1215 37.6758 37.4768 38.4453 37.7609C36.9062 36.198 35.752 35.0613 34.9824 34.3509ZM40.1768 39.466C39.792 40.3185 39.1828 41.5972 38.3491 43.3023C37.5155 45.0073 36.9062 46.2861 36.5215 47.1386C32.8021 47.2807 27.8001 47.4938 21.5156 47.778L20.7461 40.5316C20.4896 40.6737 20.0407 40.8513 19.3994 41.0644C18.7581 41.2776 18.2451 41.3841 17.8604 41.3841V51.8274C15.167 52.1116 11.0308 52.5379 5.45166 53.1062C-0.127441 53.6746 -4.26367 54.1008 -6.95703 54.385C-7.85482 55.8058 -8.81673 57.3688 -9.84277 59.0738C-6.37988 67.3148 -3.75065 73.4955 -1.95508 77.616C-4.52018 78.3265 -9.77865 79.8894 -17.7305 82.3049V89.5513C-17.7305 89.8354 -17.6343 90.2617 -17.4419 90.83C-17.2495 91.3984 -17.0892 91.8246 -16.9609 92.1088C-14.7806 93.2455 -11.3818 94.9505 -6.76465 97.2239C-2.14746 99.4973 1.31543 101.273 3.62402 102.552L7.85645 96.7976C7.72819 95.3768 7.40755 93.1389 6.89453 90.0841C6.38151 87.0292 5.99674 84.7203 5.74023 83.1574C6.125 82.8732 6.73421 82.4825 7.56787 81.9852C8.40153 81.4879 9.01074 81.0971 9.39551 80.813C12.8584 79.6763 15.4876 78.8948 17.2832 78.4686C18.9505 81.4524 21.2912 85.7149 24.3052 91.2563C27.3192 96.7976 29.2109 100.279 29.9805 101.7C31.1348 100.563 32.738 98.8224 34.79 96.478C36.8421 94.1335 38.3812 92.393 39.4072 91.2563C32.4814 85.857 27.9284 82.3759 25.748 80.813C25.8763 79.6763 26.1328 78.0423 26.5176 75.911H33.6357C40.818 82.7311 48.1927 89.6933 55.7598 96.7976C55.888 96.7976 56.0163 96.6911 56.1445 96.478C56.2728 96.2648 56.401 96.1583 56.5293 96.1583C56.0163 95.0216 54.349 91.5405 51.5273 85.7149C51.5273 85.5729 51.7197 85.2887 52.1045 84.8624L52.874 84.0099H60.7617C60.89 83.8678 61.9801 83.2284 64.0322 82.0917C59.6716 65.6098 51.7197 51.4012 40.1768 39.466Z" fill="url(#paint0_linear_1009_10574)" fill-opacity="0.5"/>
<defs>
<linearGradient id="paint0_linear_1009_10574" x1="-18.5" y1="0.0371094" x2="-18.5" y2="218.281" gradientUnits="userSpaceOnUse">
<stop stop-color="#68FDF3"/>
<stop offset="0.453125" stop-color="#BCF4F1"/>
<stop offset="1" stop-color="#00D4FF"/>
</linearGradient>
</defs>
</svg>
