<svg width="86" height="219" viewBox="0 0 86 219" fill="none" xmlns="http://www.w3.org/2000/svg">
<path d="M98.5 218.693C85.1615 218.693 72.4001 215.816 60.2158 210.061C48.0316 204.307 37.5467 196.563 28.7612 186.83C19.9757 177.098 12.9858 165.482 7.7915 151.984C2.59717 138.486 0 124.348 0 109.571C0 94.7943 2.59717 80.6567 7.7915 67.1586C12.9858 53.6604 19.9757 42.0449 28.7612 32.312C37.5467 22.5791 48.0316 14.8354 60.2158 9.08094C72.4001 3.32646 85.1615 0.449219 98.5 0.449219C111.839 0.449219 124.6 3.32646 136.784 9.08094C148.968 14.8354 159.453 22.5791 168.239 32.312C177.024 42.0449 184.014 53.6604 189.208 67.1586C194.403 80.6567 197 94.7943 197 109.571C197 124.348 194.403 138.486 189.208 151.984C184.014 165.482 177.024 177.098 168.239 186.83C159.453 196.563 148.968 204.307 136.784 210.061C124.6 215.816 111.839 218.693 98.5 218.693ZM56.3682 62.896L47.1338 53.9446C45.723 53.9446 44.0557 54.1222 42.1318 54.4774C40.208 54.8326 38.4766 55.0102 36.9375 55.0102C36.8092 54.8681 35.6549 52.2395 33.4746 47.1244C19.3665 65.1693 12.3125 85.9849 12.3125 109.571C12.3125 109.997 12.3446 110.566 12.4087 111.276C12.4728 111.987 12.5049 112.484 12.5049 112.768C13.2744 113.621 15.1662 115.219 18.1802 117.564C21.1942 119.908 23.3424 121.791 24.625 123.211H36.9375C37.3223 122.927 37.675 122.714 37.9956 122.572C38.3162 122.43 38.6689 122.288 39.0537 122.146C37.7712 120.583 35.8794 118.274 33.3784 115.219C30.8774 112.164 28.9857 109.926 27.7031 108.506C28.2161 105.238 28.9215 100.3 29.8193 93.6931C30.7171 87.0861 31.3584 82.1486 31.7432 78.8806C42.7731 73.7655 50.9814 70.0003 56.3682 67.5848V62.896ZM95.0371 28.156C93.2415 27.3035 91.5742 26.522 90.0352 25.8116C89.6504 24.6749 89.3939 23.8224 89.2656 23.254C88.4961 25.9536 87.2777 30.0031 85.6104 35.4024C86.1234 35.5444 86.8608 35.6865 87.8228 35.8286C88.7847 35.9707 89.5221 36.1128 90.0352 36.2549H95.0371V28.156ZM94.2676 128.54C93.6263 129.25 93.1774 129.818 92.9209 130.245C91.3818 133.229 89.2015 137.775 86.3799 143.885C83.5583 149.995 81.4421 154.541 80.0312 157.525C81.8268 160.509 84.5522 165.056 88.2075 171.165C91.8628 177.275 94.5882 181.822 96.3838 184.806C113.057 185.942 125.69 186.795 134.283 187.363C134.54 190.915 135.566 193.331 137.361 194.61C149.033 188.074 158.908 179.016 166.988 167.436C175.068 155.856 180.391 142.89 182.956 128.54C180.519 127.971 177.858 127.19 174.972 126.195C172.086 125.201 170.002 124.526 168.72 124.171C167.437 123.815 164.904 123.46 161.121 123.105C157.337 122.75 153.393 122.998 149.289 123.851C147.75 123.993 146.756 122.892 146.307 120.547C145.858 118.203 145.634 115.787 145.634 113.301C145.634 110.814 145.377 109.5 144.864 109.358C142.043 108.79 136.335 109.323 127.742 110.957C119.149 112.591 113.442 113.123 110.62 112.555C108.953 114.26 103.502 119.588 94.2676 128.54ZM105.618 21.7621C105.233 24.6038 104.56 28.8664 103.598 34.5498C102.636 40.2333 101.899 44.5669 101.386 47.5507C102.027 47.4086 103.085 47.231 104.56 47.0179C106.035 46.8047 107.093 46.6982 107.734 46.6982C107.35 46.414 106.901 46.1298 106.388 45.8457C108.312 45.1352 109.722 44.5669 110.62 44.1406C108.44 34.1946 106.772 26.7351 105.618 21.7621ZM127.935 19.8439C127.678 21.4069 127.55 23.6092 127.55 26.4509C127.55 29.2927 126.909 33.0579 125.626 37.7468C125.754 38.0309 126.011 38.3151 126.396 38.5993C128.961 38.3151 133.257 37.8178 139.285 37.1074C139.285 34.1236 140.632 31.1398 143.325 28.156C138.451 24.888 133.321 22.1173 127.935 19.8439ZM151.982 34.763C151.726 35.3313 151.277 36.1128 150.636 37.1074C153.073 37.5336 154.676 37.8889 155.445 38.173C153.906 36.6101 152.752 35.4734 151.982 34.763ZM157.177 39.8781C156.792 40.7306 156.183 42.0093 155.349 43.7144C154.515 45.4194 153.906 46.6982 153.521 47.5507C149.802 47.6928 144.8 47.9059 138.516 48.1901L137.746 40.9437C137.49 41.0858 137.041 41.2634 136.399 41.4765C135.758 41.6897 135.245 41.7962 134.86 41.7962V52.2395C132.167 52.5237 128.031 52.95 122.452 53.5183C116.873 54.0867 112.736 54.5129 110.043 54.7971C109.145 56.2179 108.183 57.7809 107.157 59.4859C110.62 67.7269 113.249 73.9076 115.045 78.0281C112.48 78.7386 107.221 80.3015 99.2695 82.717V89.9633C99.2695 90.2475 99.3657 90.6738 99.5581 91.2421C99.7505 91.8105 99.9108 92.2367 100.039 92.5209C102.219 93.6576 105.618 95.3626 110.235 97.636C114.853 99.9094 118.315 101.685 120.624 102.964L124.856 97.2097C124.728 95.7889 124.408 93.551 123.895 90.4962C123.382 87.4413 122.997 85.1324 122.74 83.5695C123.125 83.2853 123.734 82.8946 124.568 82.3973C125.402 81.9 126.011 81.5092 126.396 81.2251C129.858 80.0884 132.488 79.3069 134.283 78.8806C135.951 81.8644 138.291 86.127 141.305 91.6684C144.319 97.2097 146.211 100.691 146.98 102.112C148.135 100.975 149.738 99.2345 151.79 96.89C153.842 94.5456 155.381 92.8051 156.407 91.6684C149.481 86.2691 144.928 82.788 142.748 81.2251C142.876 80.0884 143.133 78.4544 143.518 76.3231H150.636C157.818 83.1432 165.193 90.1054 172.76 97.2097C172.888 97.2097 173.016 97.1032 173.145 96.89C173.273 96.6769 173.401 96.5703 173.529 96.5703C173.016 95.4336 171.349 91.9525 168.527 86.127C168.527 85.9849 168.72 85.7008 169.104 85.2745L169.874 84.422H177.762C177.89 84.2799 178.98 83.6405 181.032 82.5038C176.672 66.0219 168.72 51.8133 157.177 39.8781Z" fill="url(#paint0_linear_1009_10547)" fill-opacity="0.5"/>
<defs>
<linearGradient id="paint0_linear_1009_10547" x1="98.5" y1="0.449219" x2="98.5" y2="218.693" gradientUnits="userSpaceOnUse">
<stop stop-color="#68FDF3"/>
<stop offset="0.453125" stop-color="#BCF4F1"/>
<stop offset="1" stop-color="#00D4FF"/>
</linearGradient>
</defs>
</svg>
