<svg width="70" height="70" viewBox="0 0 70 70" fill="none" xmlns="http://www.w3.org/2000/svg">
<rect width="70" height="70" fill="#E5E5E5"/>
<g id="Header-10" clip-path="url(#clip0_21_656)">
<rect width="1440" height="1404" transform="translate(-715 -215)" fill="white"/>
<g id="cards/statistics-card">
<g id="Rectangle 10" filter="url(#filter0_d_21_656)">
<rect x="-21.0264" y="-43" width="309.079" height="156.829" rx="10" fill="white"/>
</g>
<g id="Group 10">
<circle id="Ellipse 8" opacity="0.1" cx="35.0657" cy="34.8421" r="34.3421" fill="#FFB648"/>
<g id="icons/icon-file">
<path id="Vector" d="M36.2108 23.395H28.1977C27.5905 23.395 27.0081 23.6362 26.5788 24.0656C26.1494 24.495 25.9082 25.0773 25.9082 25.6845V44.0003C25.9082 44.6075 26.1494 45.1898 26.5788 45.6192C27.0081 46.0485 27.5905 46.2898 28.1977 46.2898H41.9345C42.5417 46.2898 43.1241 46.0485 43.5534 45.6192C43.9828 45.1898 44.224 44.6075 44.224 44.0003V31.4082L36.2108 23.395Z" stroke="#FFB648" stroke-width="2" stroke-linecap="round" stroke-linejoin="round"/>
<path id="Vector_2" d="M36.2109 23.395V31.4082H44.2241" stroke="#FFB648" stroke-width="2" stroke-linecap="round" stroke-linejoin="round"/>
</g>
</g>
</g>
</g>
<defs>
<filter id="filter0_d_21_656" x="-31.0264" y="-53" width="329.079" height="176.829" filterUnits="userSpaceOnUse" color-interpolation-filters="sRGB">
<feFlood flood-opacity="0" result="BackgroundImageFix"/>
<feColorMatrix in="SourceAlpha" type="matrix" values="0 0 0 0 0 0 0 0 0 0 0 0 0 0 0 0 0 0 127 0" result="hardAlpha"/>
<feOffset/>
<feGaussianBlur stdDeviation="5"/>
<feColorMatrix type="matrix" values="0 0 0 0 0 0 0 0 0 0 0 0 0 0 0 0 0 0 0.1 0"/>
<feBlend mode="normal" in2="BackgroundImageFix" result="effect1_dropShadow_21_656"/>
<feBlend mode="normal" in="SourceGraphic" in2="effect1_dropShadow_21_656" result="shape"/>
</filter>
<clipPath id="clip0_21_656">
<rect width="1440" height="1404" fill="white" transform="translate(-715 -215)"/>
</clipPath>
</defs>
</svg>
